<?xml version="1.0"?><svg baseprofile="tiny" fill="#ececec" height="968" stroke="black" stroke-linecap="round" stroke-linejoin="round" stroke-width=".1" version="1.2" viewbox="0 0 1000 968" width="1000" xmlns="http://www.w3.org/2000/svg">
 <g id="combined">
  <path d="M456.6 615.5l5.9-7.8 7.9 6.3-4.6 4 7.1 5.6-0.9 1.2 4.4 1.6 6.1 6.8-17.7 22.4-7.5 9.5-7-5.5-4.5-1.7-2.5-3.9-9.7-7.7-0.9-0.7 2.8-3.5 3.9-4.9 2.4 1.9-1.5-3 6.5-8.4 4.2 3.3 1.1-1-4.3-3.4 6.5-8.2 2.3-2.9z" id="11219" name="11219">
  </path>
  <path d="M517.8 372.2l0.7-1.3 4-1.2-3.5 4.1-0.5 0.6-1.5-0.9 0.8-1.3z m-9.4-33.1l5.9 1.5 12.4 7 2.9 3.3 4.1 2.3 0.3-0.5 1.4-2 0.3 0.1-6.9 10.4-2 2.2-2.5-3-21.1-11.8 5.2-9.5z" id="10021" name="10021">
  </path>
  <path d="M514.1 392.1l2.2-4.6 1.9-3.3 0.8-0.7 4.7-7 2.7-4.4 18.6-26.7 3.3-1.5-0.8 5.6-3.6 3.8-15.4 23.5-7 8.7-7.3 7.3-0.1-0.7z" id="10044" name="10044">
  </path>
  <path d="M536.1 560.3l1-14.4 4 1.6 4.3-0.5 1.1-8.2 6.1 0.5 4.8 0.3 8.4 0.6-2.2 7.3 8.7 2.2-0.9 13.1 1.9 4.5-3.2 1.8-3.4 2-3.5 2-1.4 0.1-13.4 1.1-4.3-2.1 0.3-3.8-8.8-0.6 0.4-5.6 0.1-1.9z" id="11213" name="11213">
  </path>
  <path d="M721.9 466.7l6.4-2.3 2-1.4 0.2 0.6 2.1 4.1-4.6 2.3-6.1-3.3z" id="11424" name="11424">
  </path>
  <path d="M433 482.5l2.1-3.2 1.6 1.3 0.6-0.9-1.6-1.4 0.5-0.8 2.2-0.3 0.8 4.1 6.5 4.7-5.2 4.2-1.9-4.6-3.9 0.6-1.7-3.7z" id="10005" name="10005">
  </path>
  <path d="M165.6 693.9l2.2-3.9 3.6 3.9-0.7 2-4.8 4.4-3.3-2.7 3-3.7z" id="10311" name="10311">
  </path>
  <path d="M425.6 468.3l1.6-2.6 4 2.3-1.6 8.2-2 6.5-2.6-0.3-1.7 3.1-1.4-3.3 1.5-11.1 3.5-1.9-1.3-0.9z" id="10280" name="10280">
  </path>
  <path d="M759.3 391.5l7.3 0.7 7.7 2.2 1.2-1.5 2.6-1.7 1.4 3.9 3.9 0.1 17.7-6.6 1.8-2.1 0.4 1.3-0.3 3.8 2.4 6.7 4.4 7.4 4.6 14.9 4.4 9.4-2.3 0.6-3.2-9.6-2.9 1.1-0.8-2-1.7 1.7-5.3 2-0.2 1.6-12.4 5.5-19.5 6.3-16.6 2.5-2.2-10.6 2.5-3.1-3-1.8 0.3-5.3 3 0.2 1.7-3.4-1.1-7.8-6.7-1.4 0.3-6.6 10.6-8.4z" id="11365" name="11365">
  </path>
  <path d="M486 484.6l4.9 7.6 1.3-1.8-0.9 2.3 0.6 5.7 3.1-2.6 0.4 5.2 12 0.7 4.7-0.9 2.8-0.6 6.4-1.3 5.9-0.9 2.4 16.4 0.6 3.8-9 2.7-0.3-1.5-4.3 0.7-0.5-3.1-7.8 1.2 0.6 3-9.4 1.5-2.2-4.1-0.9 4.5-0.7-4.6-1.1-7.7-10-2.9-0.7-7.5 0.5-10.1 1.6-5.7z" id="11205" name="11205">
  </path>
  <path d="M489.4 387.8l2.2-4.1 1.7 1-1.5 2.6-0.7 1.4-1.7-0.9z" id="10170" name="10170">
  </path>
  <path d="M844.9 468.8l29.1-9.2 4.5-5.5 0.6 0.5 4-0.9 0.8 2.8 3.5 17.7 0.1 10.4-1.4 0 0.1 8.8-7.4-1.8-9.3 1.2-7.7-1.1-0.4-1.2-8.5 2.9-2.9-8.5-3.2-9.8-1.4 0.4-1.1-3.6 1.4-0.5-0.8-2.6z" id="11429" name="11429">
  </path>
  <path d="M467.4 413.4l5.1 2.9 0.7-1.3 0.7 2.1 11.1 6.2-4.3 7.6-9.7 17.7-6.3-2.5 1.3-4.8-2.1-3.1-10.3-6.6 4.2-0.8 5.3-9.7 4.3-7.7z" id="10003" name="10003">
  </path>
  <path d="M777.4 489.8l4 7.4-1.5 0.8-1.9 0.8-4.3-7.8 3.7-1.2z" id="11451" name="11451">
  </path>
  <path d="M802.9 386.5l-1.8 2.1-17.7 6.6-3.9-0.1-1.4-3.9-2.6 1.7-1.2 1.5-7.7-2.2-7.3-0.7-2.6-0.3 2.5-25 0.5-12.9 3-5.9-1.3-2.3 3 0.3 0.5-4.5 0.1-1.5 17.8 2.4 1.7-1 3.7 9.5 6.6 17.4-1.2 3.6 2.3-0.3 7 15.5z" id="11358" name="11358">
  </path>
  <path d="M812.4 315.4l-11.3-6.8-1.9-3.8 1.9-0.2 0.8-4.6-1.6-3.6 0.5 1 4.1-4.8 5.2 3.3 8.4 15.2-6.1 4.3z" id="11359" name="11359">
  </path>
  <path d="M567.3 191l6.7-10.5 7.4-14.7 3.3 3.1 1.7-5.8 4.5-1.8 1.7-1.2 2.1-1 1.8 1.1 3.2 1.1 1.6 0.5 3 1.4 7.9 2.7-1.4 2.9-10.6 17.4-5.9 5.7-6.5-1.9-2.3 1.2-6.2-1.8-3.3 3.6-3.3-0.6-5.4-1.4z" id="10453" name="10453">
  </path>
  <path d="M472.5 404.2l5.8-10.6 3.6-6.5 17.5 9.8 4.2 0.6-5.4 9-2.5 5.5-4.2-0.6 3.3 1.5-2.5 4-15.4-8.5 0.7-1.3-5.1-2.9z" id="10016" name="10016">
  </path>
  <path d="M571 421.8l10.4 7.4 12 4.6 5.2 0.3 4.4 2.7 0.8-0.9 7.1-11.3 4.6 0.1-0.1 1.5 3.1 0.1 6.1-0.3 0.6-1.7 5.1-0.2 0.8 9.5 1.3 4 0 0.6 0.3 8.1 1.5 4.7-18.4 11.5-4.7 2.1-3.6 3.2-8.2 1.6-1.2-1.9-0.2 1.8-6.6-0.6-17.5-1.4-0.4-3.3 2.5-1.9-2.3-7.4-5.8-13.6-2-2.5 0-1.1-4.1-2.1-9.2-9.6 9.3-6.4 9.2 2.4z" id="11378" name="11378">
  </path>
  <path d="M438.2 468.9l2.6 1.5-0.7 1.1-2.5-1.5 0.6-1.1z" id="10279" name="10279">
  </path>
  <path d="M684.1 482.5l8.3-3.4 6.1-0.2 4.3-1.4 2.5 0.4 7.4-3.8 1-1.4 3.3 3-0.2 2.8-3.2 2.3 1.9 1 3.2 9.5 1 3.8 1.3-1.3 15.9-4.9-0.7-3.1 3.1 0.4 2.8-2.4 2.9 7.8 4.4 11.1-8.6 2.9-2.9-0.1-26.4 9.5-10.7 4-5.9-15.7-5.9-7.6 1.5-3.4-2.3-0.3-3.9-6.4-0.2-3.1z" id="11418" name="11418">
  </path>
  <path d="M492.2 380.6l2.5 1.4-2.3 0.4-1-0.5 0.8-1.3z" id="10167" name="10167">
  </path>
  <path d="M495.9 361.7l2.5 1.5-0.7 1.3-2.5-1.5 0.7-1.3z" id="10153" name="10153">
  </path>
  <path d="M457.3 665.1l7.5-9.5 17.7-22.4 3.9 3.1-1.8 2.3 3.1 4.4 1.5-0.9-3.1 2.8 4.1 3.8 0.6 3.3 0.2 9.2-1.4 0 2.7 1.4 3.6 25.4-1.6 0.2-21.1 3.1-0.3-1.7-11.3-7.4-10-9.9 5.7-7.2z" id="11204" name="11204">
  </path>
  <path d="M238.8 808.6l-4.4 3.5-2.1 2.3 2.6 3.2 2.1 1.2-6.3 4.7-2.9 3.9-1.1 10.4-4.7 3.2-3.3 0-4-3.1-3.3-0.9-11.8-15.8-0.2-4.4-4.4 3 2.1-3.1-0.6-3.8-1.5 0.2-2-8.8-2.5-14.3 1.8-0.4 11.1-5.2 3.5-5.7 4.7-4.9 13.6 15.4 5.5 3.9-9.3 10 2.9 1.3 5-3.3 3.3 2.9 1.1-0.9 5.1 5.5z" id="10308" name="10308">
  </path>
  <path d="M432.7 460.8l7.6 4.6 2.7-4.5 2.7 1.7-1.4 2.1 3.7 2.7 1.6-2.5 2.6 1.7-0.7 2.8-4.5 2.4-1.8-1.2-1.1 0.6-4.8 1.6-2.2 3.3-0.3-4.7-5.6-3.4 0.5-1.5 1-5.7z m5.5 8.1l-0.6 1.1 2.5 1.5 0.7-1.1-2.6-1.5z" id="10007" name="10007">
  </path>
  <path d="M688.2 492l2.3 0.3-1.5 3.4 5.9 7.6 5.9 15.7-35.1 13-3.8-24-0.4-1.1-3-5.7 2.4-3.1 0.3-7.4 9.3-1.1 8.2 1-0.7 3.5 5.2-1.2 0-1.6 5 0.7z" id="11421" name="11421">
  </path>
  <path d="M492.2 380.6l-0.8 1.3-1.1-0.6 1.9-0.7z" id="10177" name="10177">
  </path>
  <path d="M487.2 372.7l2.8-0.2-0.8 1.3-2-1.1z" id="10111" name="10111">
  </path>
  <path d="M498.4 375.5l-2.6-1.5 0.7-1.3 2.6 1.5-0.7 1.3z" id="10152" name="10152">
  </path>
  <path d="M491.6 383.7l-2.2 4.1-0.9-0.5-1.1-0.6-1.5-0.8-0.8 1.3 2.6 1.5 2.6 1.4 0.8-1.4 2.5 1.4 0.8-1.4-2.6-1.4 1.5-2.6-1.7-1 0.8-1.3 2.3-0.4 0.8-1.3 0.7-1.3 10.6 4.2 2.1 2.9 0.2 1.6-5.5 9.4-4.2-0.6-17.5-9.8 1.5-2.7 0.7-1.4 2.6 1.4 0.7-1.3-2.5-1.4 2.9-5.3 0.7-1.3 5.1 2.9-0.7 1.3-0.7 1.3-1.9 0.7-0.7 1.3 2 1.1z" id="10017" name="10017">
  </path>
  <path d="M453.6 431.6l10.3 6.6 2.1 3.1-1.3 4.8-2.3 8-16.4-7.9 1-4.6 0.9-2.9 3.5-8.5 2.2 1.4z" id="10012" name="10012">
  </path>
  <path d="M573.3 567.3l-1.9-4.5 0.9-13.1-8.7-2.2 2.2-7.3-8.4-0.6-4.8-0.3-1.3-8.8 9.5-2.1 22.5-3.6 0.1-0.7 0-0.5 3.1 2.4 19.1 14.3 1 0.7-2 2 1.9 5.1-18.1 10.5-8.2 2.9 2.6 0.3-6.9 4-2.6 1.5z" id="11233" name="11233">
  </path>
  <path d="M649.1 596.1l6.1-4.8 7.5-4.2 2.4 8.4-7.7 7.1-2.9 0.5-2.9-2-2.5-5z m-21.1 3.1l12.4-7 6 10.8 3.7 6.6 1.9 2.3-1.8 3.5-4.4 11.5-1.2-1.9-1.9-1.6-14.1-17.8-2.6-4 2-2.4z" id="11239" name="11239">
  </path>
  <path d="M435.1 479.3l-2.1 3.2-1.1 1.9-4.3-1.7 2-6.5 1.6-8.2 5.6 3.4 0.3 4.7-0.9 1.4-0.5 0.8-0.6 1z" id="10006" name="10006">
  </path>
  <path d="M594.3 191.9l5.9-5.7 10.6-17.4 1.4-2.9 6.2 3.9 2-0.7 12 7.2-1.3 3.1 6.7-1-1.5 4.6-11.8 17.4-5.1-3.9 3.2-7.4-4.4-0.5-0.8 6.6-6.2 14.5-8.6-4 0.6-2.8-3.8 5.6-2.4 0.3-0.6-3.5-2.4 1.8-2.8-4.1 1.9-7.3 1.2-3.8z" id="10457" name="10457">
  </path>
  <path d="M617.9 216.2l3.4 0.5 0.1-3.6 1.6 3.3 12.6 6.2 0.8-3.9 4-6.6 3.5 1.7-5.7 10.8 0 1.2-1.5 7 0.2 5.6-4.8 0.9-0.9 0.6-3.9 3.4-7.9 10.1-7.4-5.8-3.3 0.2-1.4-3.2 0.5-1.7 1.1-3.4 2.3-7.4 1.2-3.6 1.5-8.6 4-3.7z" id="10459" name="10459">
  </path>
  <path d="M484.1 383l-0.7 1.4-5.2-2.8 0.8-1.4 5.1 2.8z" id="10110" name="10110">
  </path>
  <path d="M607.5 467.8l3.6-3.2 4.7-2.1 18.4-11.5-1.5-4.7-0.3-8.1 2.6-1 2.6-0.4 6.1-0.1 8.5-4.1 5.3 2.7-0.2 0.3-1.5-0.7-2.2 2.1 3.3 3.5 1.3-2.5 0.4 1.2-1.3 3.3 1.6 2.3 1.4-0.9 10.6 15.7 4.8 5.8 0.6 2.8-3.9 2.9-4.6 3-8.2 3.3-7.6 5-9.6 1-7.3-0.2-7.4-3.8-20.2-11.6z" id="11379" name="11379">
  </path>
  <path d="M487.7 388.7l-2.6-1.5 0.8-1.3 1.5 0.8 1.1 0.6-0.8 1.4z" id="10165" name="10165">
  </path>
  <path d="M435.7 478.3l1.6 1.4-0.6 0.9-1.6-1.3 0.6-1z" id="10271" name="10271">
  </path>
  <path d="M473.1 326.5l1.3 0.8-3.6 8.4-1.9 9.3-0.8 1.3-4.5-2.5-1-0.1-3.2-2.4 3.1 1.9 8.9-13.9 1.7-2.8z" id="10069" name="10069">
  </path>
  <path d="M535.4 350.7l-1.4 2-0.3 0.5-4.1-2.3 0.7-1.3 2.3 1.2 0.8-1.3 2 1.2z" id="10162" name="10162">
  </path>
  <path d="M492.9 379.3l0.7-1.3 2.6 1.4-0.7 1.3-2.6-1.4z" id="10171" name="10171">
  </path>
  <path d="M491.4 381.9l1 0.5-0.8 1.3-2-1.1 0.7-1.3 1.1 0.6z" id="10169" name="10169">
  </path>
  <path d="M489.4 387.8l1.7 0.9-0.8 1.4-2.6-1.4 0.8-1.4 0.9 0.5z" id="10168" name="10168">
  </path>
  <path d="M586.5 526l-3.1-2.4 0 0.5-0.1 0.7-22.5 3.6-9.5 2.1-9.2 0.6-1.7-11.5-4.5 0.7-0.5-3.1 4.5-0.7-0.5-3.1 9.1-1.3 4.4-2.3 0.2 1.6 4.7-0.7-1.1-7.1-0.7-0.5 7.9-3.3 3.9-2.2-1.9-1.5 2.3-3.1 15.5 11.7 2.3-3.1 4.8 3.6 2.5-3.3 2.4 1.8-2.5 3.3 4.8 3.6-11.5 15.4z" id="11221" name="11221">
  </path>
  <path d="M468.9 345l1.9-9.3 3.6-8.4 1.3 0.8 2-6.1 3.7 0.4 1.7 2.6 5.6 1.8 5.5 4.4-12.8 21.9 0-1-8.7-3.2-3.8-3.9z" id="10023" name="10023">
  </path>
  <path d="M580.3 323.2l3.2 2.9-6.4 6.9 0.7 2.8 11.5 10.7-3.6 2.5-8.4 14.2-21.3-12.5 0.5-4.6-4-1.6-0.7-3.4 2.4-5.9 3.1-2.5 4.1 0.4 3.1 3.6 2.1-0.8 6.9-5.3 6.8-7.4z" id="11102" name="11102">
  </path>
  <path d="M893.8 383.1l3 4.3-1.2 2 3.1 3.7 3.9 12.3 5.9 15.4-1.6 0.4 1.2 4.4 2.3-0.7 0.8 7.1 2.5 7.7-9.9 1.7-14.3 4.9-6.4 3.1-3-10.7 0.5-2.7-1.5-0.5 1.9-7.4 7.4-1.6-1.1-4.5 1.5-1.7-1-9.2-8.9-6 4.6-6.4 4.3-10.1 6-5.5z" id="11426" name="11426">
  </path>
  <path d="M514.4 406.9l3.6-7 2.2-3.5 1.4-2.2 3.3 1.6-2.3 8.8-3.5-0.9-4.3 3.3-0.4-0.1z" id="11109" name="11109">
  </path>
  <path d="M495.7 518.5l0.7 4.6-1.5 0.3 2.2 3.9-0.8 5.4 3.4 0.9-2.9 11.1 0.9 1.5 1.3 2.5 0.3 5.3-18.7-11.2-8.3-4.2-1.1 1 0.7-1.3-1-2.2-2.7-3.1 0.7-1.3 5.4-10.6 3.5 1.7 3.8-3.7 2.5-1.2 11.6 0.6z" id="11217" name="11217">
  </path>
  <path d="M536.1 560.3l-0.1 1.9-0.4 5.6 8.8 0.6-0.3 3.8 4.3 2.1-4.5 0.4 0.4 4.7-8.1 0.6 0.7 8.1-9.3-0.1-10 1.1-0.8 0.7-3.2 1.6-2-1.7 0.5-2.5-3.5-11.1 3.4-3.4 0.7 1.4 2.4-0.3-2.7-17.5 7.4 2 4.3 1.1 12 0.9z" id="11225" name="11225">
  </path>
  <path d="M513.6 591.4l3.2-1.6 0.8-0.7 10-1.1 9.3 0.1 0.1 1.8 1.1 13.6-1.6 0.1 0.7 8 0.9 10.8-4.6 0.4 0.2 2.8-6.9 0.3-1.1-1.4-2.2 3.1-4.4 2.7-7.4 4.7-3.7-4.6-1.2-8.7-0.4-12.9-1.8-2.3 0.8-4.8 3.8-1.9-2.5-4.9 6.9-3.5z" id="11226" name="11226">
  </path>
  <path d="M729.5 328.9l1.5-3.8 1 0-0.7 2.1-0.9 2.1-0.9-0.4z" id="11351" name="11351">
  </path>
  <path d="M876.4 344.4l-4.9 7.6-2.7-2.4 1.8 3.5-5.9 5.6-4.8 0.8-7.2 2.7-3.1-5.1-4.4 2.2-2.5-4.7-1.2-8.6 0.4-0.5 3-3-3.5-6.6 0.7-2.1 0-0.3 1.3-4.2 2.6-3 2.5-2.8 2.8 0.8 25.1 20.1z" id="11363" name="11363">
  </path>
  <path d="M632.4 438.2l0-0.6-1.3-4-0.8-9.5-1.3-2.6-3.2-0.5 4.1-1-4.7-11.7 1.7-0.3-0.1-1.8-1-7.4 1.4-0.6 33.5-4.7 0.4 0.8-1.3 0.7 2.1 4.7 0.7-0.2 0.5 2.9 0.6 8.4 1.7 5.7 2.5 2.8 0.5 5.5-7.1 3 1 1-4.8 6.5-5.3-2.7-8.5 4.1-6.1 0.1-2.6 0.4-2.6 1z" id="11373" name="11373">
  </path>
  <path d="M852.9 493.4l8.5-2.9 0.4 1.2 7.7 1.1 9.3-1.2 7.4 1.8 0.3 9.2 1.7 0.7 0.9 22.3 0.2 4-0.1 2.3-10.1-3.9-8.6-2.7-15.7-6.2 0.4-0.8-1.5-0.9 4.6-8.3-1.5-4.2-3.9-11.5z" id="11411" name="11411">
  </path>
  <path d="M700.8 519l10.7-4 3.8 13-4.7 1.8-5 1.9-10.6 3.9-1.2-0.4 0.3 0.8-2.7 1-0.5-1.4-1.4 0.5 0.6 1.4-4.7 1.9-6.8 0.5-6.6 0.6-1.6-0.4-1.2-6.4-3.5-1.7 35.1-13z" id="11416" name="11416">
  </path>
  <path d="M732.6 467.7l-2.1-4.1-0.2-0.6 0.2-0.2 8-1.1 2-0.9 11.4-4.1 0.5 2.5 5.7 1.3 0.7 3.2-3.9 0.1 0.7 6 4.5 11.5 2.1 5.6 2.4 6.8 2.8-0.9-1.7 1.5 2.2 1.1-1.1 3.2 2.9 9.8 4.2 5.3 3.5 5.5 3.1 3.2-1 0.6 0.7 1.2-0.4 1.7-18 6.7-3.4-8.7-4.3-10.2-4.7-11-4.4-11.1-2.9-7.8-3.8-7.8-5.7-8.3z" id="11435" name="11435">
  </path>
  <path d="M484.1 370.9l3.1 1.8-0.7 1.3-3.1-1.7 0.7-1.4z" id="10112" name="10112">
  </path>
  <path d="M591.2 203l2.8 4.1 2.4-1.8 0.6 3.5 2.4-0.3 3.8-5.6-0.6 2.8 8.6 4-1.1 2.3 6.8 2.5 1 1.7-4 3.7-1.5 8.6-1.2 3.6-2.3 7.4-1.1 3.4-0.5 1.7-3.7 4.4-8-4.3-2.4-0.6 2.8-0.8 1-3.8-0.6-0.2 1.8-3.2-4.1-1.7-0.8-3.3 0.2-2.8-5.8 2.6-7.8-3.3 2-4.7-2.4-1.2 2.3-4.6 6.8-9.3 2.6-4.8z" id="10456" name="10456">
  </path>
  <path d="M487.2 372.7l2 1.1-0.7 1.3-0.7 1.3-5.2-2.8 0.8-1.3 3.1 1.7 0.7-1.3z m-3.1-1.8l-0.7 1.4-4.6-2.5 0.8-1.4 4.5 2.5z" id="10020" name="10020">
  </path>
  <path d="M495.8 374l2.6 1.5-0.7 1.3-2.6-1.5 0.7-1.3z" id="10154" name="10154">
  </path>
  <path d="M596.4 388.3l-0.1 5.4-0.4 1.2-7.2-0.9-1.4 9.1 1 3.5-3.1 0.3-9.8 4.9-1.5 9.8-2.8-1-3-0.7 3.5-22.8 7.4 1.2 0.8-5.5 16.6-4.5z" id="11104" name="11104">
  </path>
  <path d="M660.7 393.5l-33.5 4.7-1.4 0.6-0.1-0.4-0.5 0-4.9 0.7 0.5 1.6-0.4 2.1 0.1-2.3-2.6-6.2-1.5-3.5 2.4-0.4-1.2-7.9 22.2-3.1 5.9-0.8-0.6-4.4 2.1 4.2 9.1-1.2 0.8 6.2 3.6 10.1z" id="11372" name="11372">
  </path>
  <path d="M883.9 456.5l-0.8-2.8-1-3.5 1-0.8 6.4-3.1 14.3-4.9 9.9-1.7-2.5-7.7-0.8-7.1-2.3 0.7-1.2-4.4 1.6-0.4 7.2-2 1.2 4.3 0.2-4.8 11.7-3.2 1.5-1.1 0 0.3-0.4 0.9 10.1 17.2-1.4 0.4 2.3 10.8 1.3 3.2 7.4 1-1.9 11.2 5.5 6 0.8-0.1 0.5 1-0.6 5.6-1.3 0.2-3.1 0.8-4.7-1.5 0.2-1.4-8.7-1-1.6 1.7-6.4 3.5-5.7-3.5-5.4-2 1.3-5-4.5-2-0.4-2-5.3 0-0.6 3.2-2.8 0.6-6-0.6-0.2-3.7-3-2.2-1-3.7-10.8 3.6z" id="11001" name="11001">
  </path>
  <path d="M449.6 464.9l-1.6 2.5-3.7-2.7 1.4-2.1 3.9 2.3z" id="10278" name="10278">
  </path>
  <path d="M495.9 688l-3.6-25.4-2.7-1.4 1.4 0-0.2-9.2-0.6-3.3-4.1-3.8 3.1-2.8 0.1-0.1 11.6-7.2 7.1-4.4 3.7 4.6 7.4-4.7 0.4 2.2 1.6-0.3 1.3 8.9-1.5 1.4 1.9 1.8 4.1 28 1.5 11-15.6 2.2-3 0.5-13.9 2z" id="11230" name="11230">
  </path>
  <path d="M523.3 312.1l10.5-18.9 4.3-7.9 17.6 9.8 4.4 0.6 2.5 3.4-7.2 5.9-6.5 12.5-6.2 5.6-1.8-1.2 0.8-1.5-9.9-5.4-0.8 1.4-7.7-4.3z" id="10029" name="10029">
  </path>
  <path d="M529.6 350.9l-2.9-3.3-12.4-7-5.9-1.5 3.1-5.5 10.2 5.7 15.6 8.7-0.8 1.5-0.8 1.3-0.3-0.1-2-1.2-0.8 1.3-2.3-1.2-0.7 1.3z" id="10075" name="10075">
  </path>
  <path d="M494.7 382l-2.5-1.4 0.7-1.3 2.6 1.4-0.8 1.3z" id="10172" name="10172">
  </path>
  <path d="M619.4 253.4l7.9-10.1 3.9-3.4 0.9-0.6 4.8-0.9 0.1 0.7 2.3 6.5 5.6 6.7 11.7 5.5 6.2 14.4-5.7 11.3-2.7 1.5-7.9-1.1 0-3.4-8.2 1.7-3.2-0.5-4-5.4-10.1-4.8-6.3 2-5.7 0.6 0.1 2.1-0.7-2-1.1-7.2 9.2-8.7 2.9-4.9z" id="10474" name="10474">
  </path>
  <path d="M853.7 517.4l1.5 0.9-0.4 0.8 15.7 6.2 8.6 2.7-2.9 9.8-6.2 15.1-1.4-0.7-1.7 3.6 1.4 0.6-1.7 3.5-1.3-0.6-1.7 3.5 0 3.5 5.4 0.9-2.4 3.5-3.8 8.1-4 5.7-3.3 1.4-2.4 2.8 0.6 3.2-1.2 2.5 0.8 5.4 3.7 3.8-3.6 7.8-5.2-4-25-18.7 2.4-0.3-0.5-4.7-2.5 0.3-0.4-4.1 2.9 0.6 4.1-13-2.9-1.3 2.6-0.4 1.3-4.5 0.5-3.2-0.5-2.2 1.1-0.3-2.9-1.9 1.1-3.8 1.4 1 3.4-1.9 3.7-2.1-2.9-6 2.9-0.6-6.3-11.2 18.4-8.9 0.9 1.9 2.7-4.7z" id="11413" name="11413">
  </path>
  <path d="M462.6 388.5l-1.4 2.6-4.6-2.4 1.5-2.7 4.5 2.5z m-11.2-1.1l4.5 2.4-0.7 1.4-4.5-2.5 0.7-1.3z" id="10199" name="10199">
  </path>
  <path d="M510.2 262.9l1.5 0.8-0.6 1.2-1.5-0.8 0.6-1.2z" id="10115" name="10115">
  </path>
  <path d="M140.3 632.3l7.4-9.3 3.9-4.8 0.4-0.3 3.7-1.7 7-3.5 3.5-1.7 2.4 0.2-0.3 4.9 1.4 0.6 2-2 1.6 0.5 0.5-3.3 2.3 0.1 6 6 25 6.3 0.3 3.7 2.5-3 4.4 2.7 1.8-3.6 9.2-1.3-3.4 11.4-0.7 6.3 3.3-0.9-3.4 2 0.4 6.4-1.1 6.2-4.2-0.4-1.3 4.9-3.1 3.3-19.9-1.5-1 4.8-5.3-2.8-1.1-0.5-8.8 3.5-3.1 3.7-4.3 8.8-2.3 2.9 3-7.1 2.9-10.8 0.5-6.4-2.2-2.7-9.7-6.8-1.6 1.7-1-2.4-4.4-0.8-2-3.4-1.6 3.7-2.9 0.2-0.9-4.5-3.4 0-2.7-2-0.5-0.8 1.5 1.5 5.6-3.8-6.3-4.2z" id="10303" name="10303">
  </path>
  <path d="M471 448.6l9.7-17.7 4.3-7.6 8.9 5.1 1 0.5 3.7 6.4-0.1 5.5-3.6 16.9-2.4-0.3-5.7-2.5-15.8-6.3z" id="10009" name="10009">
  </path>
  <path d="M532.1 214.5l4-15 2.7-6.6-1.2-4.7 0.2-1.8-0.5-5.8 6.1 1.5-2.7 10 0.6-1.6 6.7-0.6 2.2 2.8 6.7 3.7-1.5 3.5 0.9 4.2-4.6 10.1-3.8 5.8 0 2.6 0.3 0.2-1.5 2.7-13.7-7.6 0.6-2.7-1.5-0.7z" id="10032" name="10032">
  </path>
  <path d="M491.4 369.9l-0.7 1.3-5.1-2.9 0.7-1.3 5.1 2.9z" id="10103" name="10103">
  </path>
  <path d="M507.2 268.2l3.2 1.7-1.5 2.7 4.5 2.5-0.7 1.3 3.4 1.9 0.4-1.5-3.1-1.7 3.5 0.2 4.3-9.8-1.1-2.5 4.5 2.5-2.9 5.3-2.2 4.1-0.1 5.2-2.2 4.1 2.3 1.3-3 5.3-11.1 20.1-16-8.9 0.5-3.4 4-4.7 0.8-4.3 5.6-7.9 5.9-12.3 1-1.2z" id="10025" name="10025">
  </path>
  <path d="M113.7 793l1.9 2.7 8.9-1.5 2 1.6-9.9 3.6-2.8 1.7 3.5-0.5 7.7 24.1 4.8-1.5 7.2 20.5-7.2 4.2 0.3 1.6 8.6-1.5 2.2 5.3 1.8-1.1-7.1 9.5 3 4.5 6.8 13.5-0.7 5.1-9.7 6.4-2.2-2.4-9.7 2.2-4.3 3-0.7-2.7-3.8 2.2-16.5 4.3 0 7.4 2.3 5.6-7.2 1-3 0.3-7.4-30.4-2.2-2.1-1-4.6-10.2-1.3-0.3-1.2-1.6 0.8-0.7-1.7 1.6-19 0.2-2.2-3.9-10.3-1.7-4.3-3.8-10.1-0.3-0.7 30-24.3 19.1 0.1 0.8-1.1 5.2-6.7z" id="10309" name="10309">
  </path>
  <path d="M646.8 63.7l0.5 0.1 15.9 6.2 5.1 2.5 8.5 2.8-0.4-3.6 2 0.2 1.8-1.6-0.2-4.5 1.6-2.5 3.5-1-1.2-3.3 3.5-3.5 2.5-0.3-3.9 5.4 5.3 0.2 7.8 3.8 0.9 1.8-1.6-0.2-2.1 6.5-3.9-2.8-6.2 10.4-3.1-1.6-1.4 2.6 0.1-3.3-4.9-2.4-5.7 10.9-1.1-0.5-0.2 2.3-6.1 12.9-2.7 10.2-2.7 6.5-6.2 0.4 0.2-3.2-5.5-1.2 0.3-10.7-3.6-10.3 0.3-6.9-0.8-3 2-5.7 1.7-13.6z" id="10470" name="10470">
  </path>
  <path d="M636.9 238.4l-0.2-5.6 1.5-7 0-1.2 5.7-10.8 1.2 0.5 3.7-3.6 12.6 1.4 3.5 1.3 6.5 3.9 3.8-0.3 24 9.8-2.8 1-59.5 10.6z" id="10472" name="10472">
  </path>
  <path d="M612.2 165.9l-7.9-2.7-3-1.4-1.6-0.5-3.2-1.1-1.8-1.1-2.1 1-1.7 1.2-4.5 1.8-1.7 5.8-3.3-3.1 7.9-10.6 7.2-12.1 1.9-7.2 0.1-0.2-0.6 8.1 4-11.3 0.4 0.1-3.1 8.8-0.4 3.9 2.5-2.9 4.4-2.8 1.8-2.4 0.3-6.1 1.6-4.8 2.3-1.7-0.3 5 3.2 2 1.7 4.8 9.5-15.8 5.2-8.2 1.8 0.1 1.7 4.9 0.4 3.4 1.4 0.9-4.1 12-0.8 1.3-6.2 5.5-4.2 7.2-4.3 7.5-2.8 6.8-1.7 3.9z" id="10468" name="10468">
  </path>
  <path d="M753.9 439.7l16.6-2.5 19.5-6.3 12.4-5.5 0.2-1.6 5.3-2 1.7-1.7 0.8 2 2.9-1.1 3.2 9.6 2.3-0.6 7.2-1.6 5.3 6.7 8.8 6.7-8.5 0.4-6.7-0.9-11.7 3.5-6 4.8-1.1-1.8 4.5-4.1-3.7-10.4-5.7 2.1 0.6 1.7-3.8 1.6-0.7-1.6-3.4 3.4-4.1 1.7-1.8-1.1-6.2 2.5-25 11.3-1.2 0.4 0.7-2.6-2.4-13z" id="11366" name="11366">
  </path>
  <path d="M556.9 196.4l-6.7-3.7-2.2-2.8-6.7 0.6-0.6 1.6 2.7-10 0.6-3 6-10.4 17.3 8.9 5.5-10-3.9-3.1 3.8-7.4 3 5.8 0 6.3 1.1 0.5-1.3 1.9-10.1 18.8-4.3-1.7-4.2 7.7z" id="10033" name="10033">
  </path>
  <path d="M607.3 267l1.1 7.2 0.7 2-1 1.2-1.2-0.6-7.2 11.4-5.8 5.4-3.5-0.2-9.9-5.4-2.8-4.4-2.3-2-6.7-0.3-7.2-11.2 8.5-7.6 6.9-4.7 3.2 1.8 1.3-1.8 7.6 4.4-1.1 2.6 7.2 3.4 0.5-1.8 8.6 2.3-4.6 3.8 7.7-5.5z" id="10454" name="10454">
  </path>
  <path d="M764.9 340.9l-0.5 4.5-3-0.3 1.3 2.3-3 5.9-0.5 12.9-8-2.1-5.6 1.3-21.7 8-13 8.8-0.5-1.5-0.7-3.8 2.9-8.8-0.1-3.2-4-5.6-1.4-1.8-5.8 1.7-5.5-1.9-3.8-7.5 1.9-1.1-2.2-3 1.6-3.8-0.1-6.9 14.4 1.1 1.6-0.6 0.2-3.9 4 0.2 4.6 14.9 2.9-2.4 4.9-7.2 1.8-1.4 2.5 1.6 6.6-2 14.2 2.7 9.8 1 4.2 1.9z" id="11354" name="11354">
  </path>
  <path d="M495.9 361.7l-0.7 1.3-3.8 6.9-5.1-2.9-0.7 1.3 5.1 2.9-0.7 1.3-2.8 0.2-3.1-1.8-4.5-2.5-0.8 1.4 4.6 2.5-0.8 1.3-19.2-10.7-2.6-3.2-4-0.5-5.5 7.4-1.1-0.5-3.2-2.9 3.8 1.4-2.4-3.7 4.7 2.7 1.2-1.6-5-2.8 5.4 1.9 1-1.7-5.5-3.1 0.8-1.2 5.2 2.8 0.8-1.4-4.5-3.6 5.3 2.8 1-1.7-5.3-3.1 4 1.3 2.8-4.4-3.3-2 1.6-2.5 4 0.4 1 0.1 4.5 2.5 0.8-1.3 3.8 3.9 8.7 3.2 0 1 0 1.4 1.1-0.3 13.4 7.5z" id="10019" name="10019">
  </path>
  <path d="M646.8 63.7l-1.7 13.6-2 5.7 0.8 3-0.3 6.9 3.6 10.3-0.3 10.7 5.5 1.2-0.2 3.2 6.2-0.4 2.7-6.5 2.7-10.2 6.1-12.9 0.2-2.3 1.1 0.5 2.4 1.1-6.4 16.3 6.2 1.9 9.2 3.7-8.7 20.5-0.4 6.6-1.7 3.7 1.5 3.8-0.4 20.6-10.5 0.4-1.9 0.2-2.4 0.7 1-12.4-0.2-17.3 0.4-8.1 1.4-5.5-1.1-0.7-1.3-0.5-2.5 7.1-6 9.8-5.7 4.7-4.1-8.1-3.7-13.3-1.4-0.9-0.4-3.4-1.7-4.9-0.1-3.3-13.8-3 1.5-2.9 11.3-5.4 4.8-13.3-0.5-5.7-2.2-2.8 0.3-5.2-0.6-9.5 0.7-2 12.3 4.3 0.3 0z" id="10467" name="10467">
  </path>
  <path d="M552.6 539.3l-6.1-0.5-1.1 8.2-4.3 0.5-4-1.6-1 14.4-12-0.9-4.3-1.1 4.4-16.1 3.5-1-3.6-1-0.2-1.4-2.3-14.8-0.4-3.1 9-2.7-0.6-3.8 9.6-2.5 0.2 1.5 0.5 3.1-4.5 0.7 0.5 3.1 4.5-0.7 1.7 11.5 9.2-0.6 1.3 8.8z" id="11216" name="11216">
  </path>
  <path d="M487.8 376.4l-2.9 5.3-0.8 1.3-5.1-2.8-0.8 1.4 5.2 2.8-1.5 2.7-5.1-2.8 0.7-1.3-15.6-8.9-3.9 1.3-2.8-2 2.6-1.4-7.4-4.1 0.9-1.3 5.5-7.4 4 0.5 2.6 3.2 19.2 10.7 5.2 2.8z" id="10036" name="10036">
  </path>
  <path d="M572.7 157.1l-3.8 7.4 3.9 3.1-5.5 10-17.3-8.9 6.1-8.8 2.2-5.6 1.7 0-0.5 6.6 2.8 1 3.1-10.4 6.9-4.3 1 2-3.6 1.8 3 6.1z" id="10040" name="10040">
  </path>
  <path d="M484.9 381.7l2.5 1.4-0.7 1.3-2.6-1.4 0.8-1.3z" id="10173" name="10173">
  </path>
  <path d="M579.5 221.7l2.4 1.2-2 4.7 7.8 3.3 5.8-2.6-0.2 2.8 0.8 3.3 4.1 1.7-1.8 3.2 0.6 0.2-1 3.8-2.8 0.8-0.5 1-8.3-3.2-2.4 7 2.3 2.5-2.8-0.9-1.8 5.4-2.8 1.9-6.9 4.7-8.5 7.6-1.3-2.9 0.3-10.3 0.1-11.2-1.1-18.2 3.3-0.4 3.5-1.8 9.7 4.9 3.5-8.5z" id="10451" name="10451">
  </path>
  <path d="M656.3 377.2l-9.1 1.2-2.1-4.2 0.6 4.4-5.9 0.8-1.1-7.7 0.9-4.3-2.5-7.5 3-0.4-0.6-4.1-7.6 2-0.3-1.2 5.4-2.2 10.3-6.7 4.2-1.3 4.2-0.1 3.7 1 6.8 5.2 5.2 6.3 2.8 4.5 2.9 5.2 7.4 6.3-5.2 0.5-2.3-3.8 0.5 4-10.8 0.6-10.4 1.5z" id="11369" name="11369">
  </path>
  <path d="M571 421.8l-9.2-2.4-9.3 6.4 9.2 9.6 4.1 2.1 0 1.1-8.5-2.4-4.9-2.1-3.4-3.5-1.1-3.6-2.9-5.2-7.8-3.8-8.7-3.6-2.2-0.4-5 0.5-8.6 5-0.3-4.7 2-7.9 0.4 0.1 4.3-3.3 3.5 0.9 2.3-8.8-3.3-1.6 8.7-12 0.9-1.4 9.7-16.1 3.6 1.8-1.3 2.9 10 5 16.7 12.2 6.4-10.5 10.2 6.3-0.7 1.2 1.7 0.2 4.6 1 3.3 0.7 1 2.8-16.6 4.5-0.8 5.5-7.4-1.2-3.5 22.8 3 0.7-0.1 1.2z" id="11101" name="11101">
  </path>
  <path d="M672.9 164.7l0.4-20.6-1.5-3.8 1.7-3.7 0.4-6.6 8.7-20.5 12.9 7 6.8 1.9 0.9 1.2 2.3-1.9 4.1-1.9 5.6 13 3.2 14.2 5.7 12.9 2 2.6-5.8 8.8-0.8 0.8-0.5-1.2-0.5 1.7-3.8-0.5-2.1-1.9-10.3-2.1-9.6-0.9-11.6 1.3-8.2 0.2z m-13.3-42.7l1.1 0.7-1.4 5.5-0.4 8.1 0.2 17.3-1 12.4 2.4-0.7 1.9-0.2-1.5 2.5-1.9 0.4-2 4.9-1.1-9.5 1.3-10.8-1-8.9 0.2-5.4 2-11.8 1.2-4.5z" id="10469" name="10469">
  </path>
  <path d="M464.7 446.1l6.3 2.5 15.8 6.3 5.7 2.5 2.4 0.3-3.7 11.9-2.9 4.7-5.5 1.8-11.6 1.4-0.3-1.7-5.1 0.9-0.4-2.8-2.9 2.9-3.5 0.7-2.1-10.3 2.3-4.5 2-4.7 1.2-3.9 2.3-8z" id="10002" name="10002">
  </path>
  <path d="M761.8 532.6l18-6.7 1.4 3.7 1.6-0.7 0.1 4.4 2.4 10.1-1.9 0.8 1.2 3.4 2.7 1.2-0.7 3.8 3.6 0.8-2.1 12.9-5.9-0.5-10.8 1-2.8-0.3 0.4-13.4-7.2-20.5z" id="11436" name="11436">
  </path>
  <path d="M739.8 96.9l-6.4 5-2.4 2.2-12.7 5.2-8.7 6.5-4.1 1.9-2.3 1.9-0.9-1.2-6.8-1.9-12.9-7-9.2-3.7-6.2-1.9 6.4-16.3-2.4-1.1 5.7-10.9 4.9 2.4-0.1 3.3 1.4-2.6 3.1 1.6 6.2-10.4 3.9 2.8 2.1-6.5 1.6 0.2 0.1 1.1 5.2 0 1.2 5.8 2.3 4.1-0.8 4.4 2.1 7 23.6 8.9 0.5-2.9 5.6 2.1z" id="10466" name="10466">
  </path>
  <path d="M485 423.3l-11.1-6.2-0.7-2.1-0.7 1.3-5.1-2.9-4.9-3.2 3.1-5.7 1.7-3.1 5.2 2.8 5.1 2.9-0.7 1.3 15.4 8.5 2.5-4-3.3-1.5 4.2 0.6 2.5-5.5-2.2 15.1-2.3-1.3 1.2 8.6-1-0.5-8.9-5.1z" id="10010" name="10010">
  </path>
  <path d="M456.6 615.5l-2.3 2.9-6.5 8.2 4.3 3.4-1.1 1-4.2-3.3-6.5 8.4 1.5 3-2.4-1.9-3.9 4.9-2.8 3.5 0.9 0.7-1.1 0.1-5.1-5-15.9-9.9-15.8-6.4-0.1 3.2-1.9 2.7-2.4 0.5 0.7-2.8 3.9-7.8 3.7-7.3 1.4 1 3.4-3.1 3.6 2.6 3.5-4.6-5.2-5.2 6.1 4 2.3-1.6-2.5-4.5 1.9-2.5 5.6 4.6-0.9 1.1 3.5 2.8 9.3-11.7 6.4-0.7-1.8 2.4 6.8 5.5 1.9-2.4 7 5.6-2.3 2.9 3.5 3.8 3.5 1.9z" id="11220" name="11220">
  </path>
  <path d="M548.2 222.8l-0.3-0.2 0-2.6 3.8-5.8 4.6-10.1-0.9-4.2 1.5-3.5 4.2-7.7 4.3 1.7-8.1 20.5-0.4 0.9-0.6 3.4 2 30.5-0.9 1.5 0.2 1.8-4.7-2.6 1.5-2.7-9-5-0.8 1.4-1.8-1 1-1.3 5.8-10.6 1.1-3-2.5-1.4z" id="10039" name="10039">
  </path>
  <path d="M672 540.5l6.6-0.6 6.8-0.5 4.7-1.9-0.6-1.4 1.4-0.5 0.5 1.4 2.7-1-0.3-0.8 1.2 0.4 10.6-3.9 5-1.9 4.7-1.8 1.4-0.5 4 12.2 1.3 2.9-1.8 6-6.1-1-1.7 2.3 5.8 16.6-6.3-1.3-31.6-13-6.7-3.1-1.6-8.6z" id="11417" name="11417">
  </path>
  <path d="M548.4 574.3l13.4-1.1 0.1 1.7 5.3 5.4 1.5 1.7 0.1 1.7 8.6 8.7 1.9 7.7 1 12.6-1.4 1.5-1.4 1.3 0.2 1.2 1.5 0.3 1.5-0.1-3 2.2-1 1.3-1.7 2.4-4.4 3.7-8.8 5.8-1 0.9-3.5 0.3-1.5 0.1-0.4-4.8-3 0.3-0.4-4.9-7.6 0.6-0.2-2.9-6.1 0.5-0.9-10.8-0.7-8 1.6-0.1-1.1-13.6-0.1-1.8-0.7-8.1 8.1-0.6-0.4-4.7 4.5-0.4z" id="11203" name="11203">
  </path>
  <path d="M482.5 633.2l-6.1-6.8-4.4-1.6 0.9-1.2-7.1-5.6 4.6-4 11.5-6.3 2.4-0.4-2.4-16.7 3.2-4.1 4.9 3.6 2.5-6.8 1.8 2.9 2.7 12.5-0.5 1.2 0.9 0.4 0.6-0.9 8.7-4.5 2.5 4.9-3.8 1.9-0.8 4.8 1.8 2.3 0.4 12.9 1.2 8.7-7.1 4.4-11.6 7.2-0.1 0.1-1.5 0.9-3.1-4.4 1.8-2.3-3.9-3.1z" id="11218" name="11218">
  </path>
  <path d="M606.5 548.1l-1.9-5.1 2-2-1-0.7-19.1-14.3 11.5-15.4 8.4 6.3 2.4-3.4 2.6 8-1.2 0.7 7.4 11.5 3.7-6.1 2.7 3.9 4.6-1.6 2.3 3.4 2.7-1.6 4.6 32.4 7.6 13.3-1.4 0.8 5.7 8.5-5.8 3.3 5.7 10.2-3.6 2.8-6-10.8-12.4 7-2.2-2.5-3.2 3-3.5-4.5-2.7-1.1-0.5 0.3-0.6-0.7-1.7-7.5 0.4-0.1-3-6.7 0.4-6.7-4.9-24.6z" id="11207" name="11207">
  </path>
  <path d="M140.3 632.3l6.3 4.2-5.6 3.8-1.5-1.5 0.5 0.8 2.7 2 3.4 0 0.9 4.5 2.9-0.2 1.6-3.7 2 3.4 4.4 0.8 1 2.4 1.6-1.7 9.7 6.8 2.2 2.7-0.5 6.4-2.9 10.8-3 7.1 2.3-2.9 4.3-8.8 3.1-3.7 8.8-3.5 1.1 0.5 5.3 2.8 1-4.8 19.9 1.5 3.1-3.3 1.3-4.9 4.2 0.4-2.5 6-6.1 9.6 5.8-8.1 2.1 2.2 2.6 0.2-0.5 3.5-2.6 0-0.7 3.1 9.1 1.1 0.4-6.8-0.5-3.9 8 0.3 0.4-4.1 3.8 2.7 2.8-1.3 0.6 2.4 2.3-0.3-0.3-3.6 6.9-0.7 2.8 1.7-0.3-1.4 4.3-1 3.7 5.1 2.8 8.2 5.1-0.5 1.4 13.5 4.1 2.4 2.1 0.6-1.1 8.9-6.7 8-3.2 0.5 0.3 5.9-4.4 1.5-0.2-7.2-1.6 0-0.3 2.4-3 2.6-5.8 12.5-0.2 5.7-2.2 2.7 0 4.2-2.1 2.4-0.5 5.5-2.1 1.3-4.4-2.5-0.7-4.3-7.5-5.7-11.4 0.9-0.8 5.2-9.9 11.5-3.5 2.8-24 17.6 0.4 9.3-1.6-0.9-7.5 0-3.7-8.2-2.2-1.9-7.6-4.1-4.9-7.2-7.8 1.9-9.9-4.7 1.9 6.1 4.3 17 1 2.5-10.2 11.2-4 3.1-6.4 2.6-8.9 1.5-1.9-2.7 3.1-3.9 0.6-0.7 3.5-19.1 1.9-10.8 1.7-9.1 0.2-1.3 3.1-16.8 0.5-2.5 11.5-16.1 2.2-10-1.1-30.1-7-1.4-0.8-0.2-1.3-5.4 0.5-6.5 1.5-18.6 2.7-3.4 3.8-4.8z m25.3 61.6l-3 3.7 3.3 2.7 4.8-4.4 0.7-2-3.6-3.9-2.2 3.9z" id="10314" name="10314">
  </path>
  <path d="M637.8 178.4l-6.7 1 1.3-3.1-12-7.2-2 0.7-6.2-3.9 1.7-3.9 2.8-6.8 4.3-7.5 4.2-7.2 6.2-5.5 0.8-1.3 4.1-12 3.7 13.3 4.1 8.1-6.3 6.5 4.7 8.2 0 7.9 5.5 4.5-5.2-3-3.2 6.7-1.8 4.5z" id="10458" name="10458">
  </path>
  <path d="M517.8 372.2l-0.8 1.3 1.5 0.9-3.2 5.3-6.2 8.4-0.2-1.6-2.1-2.9-10.6-4.2-2.6-1.4-5.1-2.9 0.7-1.3 0.8-1.3 0.7-1.3 0.7-1.3 3.8-6.9 2.5 1.5 0.7-1.3-2.5-1.5 0.7-1.3 13.8 7.7 2.3-0.4 5.1 4.5z m-19.4 3.3l0.7-1.3-2.6-1.5-0.7 1.3-0.7 1.3 2.6 1.5 0.7-1.3z" id="10022" name="10022">
  </path>
  <path d="M474.4 327.3l-1.3-0.8-1.3-0.7 24.3-46.2 13.9-26.1 3.3-4.9 2.2 1.3-0.9 1.9-0.2 3-4.2 8.1-0.6 1.2-2.4 4.1-1 1.2-5.9 12.3-5.6 7.9-0.8 4.3-4 4.7-0.5 3.4 16 8.9-11.2 20.3-5.5-4.4-5.6-1.8-1.7-2.6-3.7-0.4-2 6.1-1.3-0.8z" id="10024" name="10024">
  </path>
  <path d="M639.8 379.4l-22.2 3.1-1.9-13.8-1.3 2.2-0.4 0 5.9-9.3 1.2-3.8-10.1-2.2 0.5-3.4 11.9-10.5 1.6-6.2 2.3-1.6 2.2 8.3-0.6 1.1 1.1 8.7 1.6 4.2 0.3 1.2 7.6-2 0.6 4.1-3 0.4 2.5 7.5-0.9 4.3 1.1 7.7z m-16.2-77.7l1.3-8.1 1.7-2.3 4.7-1.3 1.7 0.8 6.2 5.8 7.6 1.8 4.6 4.3 6.2 4.4 0.7 2.6 0.2 2.4-1.3 2.3-2.3 2-6.2 0.2-2.1 0.9-11.1-2.8-4.8-0.7-3.6-6.5-2.6-0.6-0.9-5.2z" id="11370" name="11370">
  </path>
  <path d="M823.2 588.7l25 18.7 4.3 4.4 4.2 9.8-2.8 12.3-30.9 16.8-2 4.6-0.1 0.1 0.3 2.5-1.5 2.2-0.4 2.1-0.5 0.6-0.2 0.7-0.3 0.5-0.3 0.3-0.3 0.2-0.5 0-0.5-0.3 0.8-6.1-6.7 8 5.2-9.5-5.6-6.9-5-1.1-11.5-9.4-2.5-0.9-3.4-3.7-2.1 0-11.7 6.8 10.8-7.3-1.6-2.9-3.5-1.2-4.3-3.2-15.1-7.9-3.1-2.2-12.1-6.6-3.8-1.3-4.9-6.7-2.8-11.7 1.8-8.4 1.4-1.3 4.3-2.3 11.6 0.6-12.5-2.4-6.6 3.9-2.3 9.3 3.3 15.8-2.9-3.4-2.7 3.1-3.2-16.3-2.3-8.3-4.5-11.4 9.3 3.6 6.1-0.3 15.4 2.2 2-0.5 1.2-2.3 1.6-6.2 13.8 0.7-0.8 3.1 11.2 0.8 16 3 6.8 2.4 5.6 3.2 5.2 2.1 10.6 7.6z" id="11430" name="11430">
  </path>
  <path d="M607.3 244.6l1.4 3.2 3.3-0.2 7.4 5.8-2.9 4.9-9.2 8.7-7.7 5.5 4.6-3.8-8.6-2.3-0.5 1.8-7.2-3.4 1.1-2.6-7.6-4.4-1.3 1.8-3.2-1.8 2.8-1.9 1.8-5.4 2.8 0.9-2.3-2.5 2.4-7 8.3 3.2 0.5-1 2.4 0.6 8 4.3 3.7-4.4z" id="10455" name="10455">
  </path>
  <path d="M461.2 391.1l1.4-2.6 4.5 2.6-1.4 2.5-4.5-2.5z" id="10119" name="10119">
  </path>
  <path d="M532.1 214.5l1.5 0.7-0.6 2.7 13.7 7.6 1.5-2.7 2.5 1.4-1.1 3-5.8 10.6-2.9-1.6-2.1 5.8-3.2-1.8 0.7 4.3-3.4 4.5-4 1.5-12.3-6.8 3.2-4.9-2.6-1.9 3.7-7.3 5.5-3.2 5.7-11.9z" id="10031" name="10031">
  </path>
  <path d="M721.9 466.7l6.1 3.3 4.6-2.3 5.7 8.3 3.8 7.8-2.8 2.4-3.1-0.4 0.7 3.1-15.9 4.9-1.3 1.3-1-3.8-3.2-9.5-1.9-1 3.2-2.3 0.2-2.8-3.3-3-1 1.4-7.4 3.8-2.5-0.4 9.5-4.5 9.6-6.3z" id="11415" name="11415">
  </path>
  <path d="M730.3 463l-2 1.4-6.4 2.3-9.6 6.3-9.5 4.5-4.3 1.4-6.1 0.2-8.3 3.4-1.9 0.8-2.2-10.6-1.9-21.2 2.2-0.4 5.1-10.7 3.4-1.8-1.8-5.8 2.8-1.1-1.6-4.1-4 0.2-2.4-5.9 3.2-2.8 4.5-1.3 6-3.1 3.7-2.3 1.1 10.6 2.9 6.3 5 6.3 2.9 5.1 3.1 8.7 6.7 9.9 3.1 1.9 6.5 1.6-0.2 0.2z" id="11375" name="11375">
  </path>
  <path d="M552.9 246.4l4.7 2.6-0.2-1.8 0.9-1.5-0.1 11.1-0.7 10.3 1.7 4.3-2.3 1.2-3.3-3.2-5.1-2.9-0.7 1.3-4.8-3.5 2.6-4.6-1.1-2.3 2.6-0.4 5.8-10.6z" id="10037" name="10037">
  </path>
  <path d="M491.1 388.7l0.7-1.4 2.6 1.4-0.8 1.4-2.5-1.4z" id="10174" name="10174">
  </path>
  <path d="M467.4 413.4l-4.3 7.7-5.3 9.7-4.2 0.8-2.2-1.4 2.3-4-4.8-12.9-4.5-2.5 0.8-1.5-4.5-2.5-0.8 1.4-1.8-0.9-4.8-2 5.3-0.9-1-2.8-3.5-0.5 3.8-0.3 0.7-5.7-1.6-1.1 3.5-10.2 2.7-5.1 0.9 0.7-2.3 4.4-2 7.4 0.5 2.1 2.3-0.6 9 5 0.7-1.3 4.7 3.4 8.6 4.7-3.1 5.7 4.9 3.2z" id="10011" name="10011">
  </path>
  <path d="M556.5 346.1l-0.5 4.6 21.3 12.5 4.6 2.9-3.4 4.7-2.2 5.3-6.4 10.5-16.7-12.2-10-5 1.3-2.9-3.6-1.8 5.4-8.5 9.6-7.5 0.6-2.6z" id="11106" name="11106">
  </path>
  <path d="M473.2 691.3l21.1-3.1 1.6-0.2 13.9-2 3-0.5 1 9.7 3.2 19-1.8 4.1 2.2-0.5 0.8 5.9-2.7 0.4-7.1 1-0.8 4.6-3.7 0.6 2.6 5.7-4.5 2.2 4.1 0.6-1.9 0.1-2.1 1.1-13.4 2.5-8.4-2.1-2.9-20.4-0.1-0.3-4.4-22.8 0.3-5.6z" id="11223" name="11223">
  </path>
  <path d="M522.5 369.7l-4 1.2-0.7 1.3-5.1-4.5-2.3 0.4-13.8-7.7 6.6-11.8 21.1 11.8 2.5 3 2-2.2-6.3 8.5z" id="10065" name="10065">
  </path>
  <path d="M632.8 112.5l-1.8-0.1-5.2 8.2-9.5 15.8-1.7-4.8-3.2-2 0.3-5-2.3 1.7-1.6 4.8-0.3 6.1-1.8 2.4-4.4 2.8-2.5 2.9 0.4-3.9 3.1-8.8-0.4-0.1-4 11.3 0.6-8.1-0.1 0.2-3.1-5-7.4-3.2-7.3-2.1-4.5-4.6-3.8-0.8 6.4-17.1 3.6 0.8-0.1 2.8 4.4 1.5 3.2-3.2-4.3-1.1 0.6-9.2 5.4 3.2 6.2 0.5 4.4 4.1 1.2-5.5 4.2 2.1 0.8 4 4 1.6 6.6 1.5 13.8 3 0.1 3.3z" id="10463" name="10463">
  </path>
  <path d="M543.8 237.8l-1 1.3 1.8 1 0.8-1.4 9 5-1.5 2.7-5.8 10.6-2.6 0.4 1.1 2.3-1.2 0.1-3.1-0.7-6.7-5.4 4.2-11.7 2.1-5.8 2.9 1.6z" id="10030" name="10030">
  </path>
  <path d="M756.2 415.7l-1.7 3.4-3-0.2-0.3 5.3 3 1.8-2.5 3.1 2.2 10.6 2.4 13-0.7 2.6 1.2-0.4 0.7 3.2-5.1 1.1-0.5-2.5-11.4 4.1-2 0.9-8 1.1-6.5-1.6-3.1-1.9-6.7-9.9-3.1-8.7-2.9-5.1-5-6.3-2.9-6.3-1.1-10.6 5.3-3.4 9.5-3.6 14.1 1.8 3.4-1 6 4.6 7.4 2.8 2.2-0.7 0.1 2 3 0.5 6 0.3z" id="11367" name="11367">
  </path>
  <path d="M767.3 721.9l-1.3-3-2.9-6.5 3.6-3.7 9.6-1 5-6.7 7.3-6.3 3.9 4.9-2 4.7-2.7 2.3-2.4 6.6 0.7 4.2 2.3-0.9 0.1-4.8 6.9-0.4 1.9 5.3 0.4 5.1-2.7 1.1 5.4 0 0.4 3 3-0.7 0.1-3.2 8-0.7 6.7-2.1 0.9 6.6-8.4 0.1-42.2 10.7-4.1-1.7-1.8-3.6-0.3-4.9 3.5-0.3 1.1-4.1z" id="11692" name="11692">
  </path>
  <path d="M440.5 490.2l5.2-4.2-6.5-4.7-0.8-4.1-2.2 0.3 0.9-1.4 2.2-3.3 4.8-1.6 1.1-0.6 1.8 1.2 4.5-2.4 0.7-2.8 3 1.9 1.7-1.3 2.1 10.3 3.5-0.7 2.9-2.9 0.4 2.8-10 2.2-1.5 1-3.4 2.3 0.1 3.2-5.3 1.2 1.2 2.7-0.4-0.2-4.3 3.5-1.7-2.4z" id="10038" name="10038">
  </path>
  <path d="M739.8 96.9l7.3 2.6-0.4 4.9-6.3 2-0.7 0.3-0.2 7.3-5.4 18.9 3.3 8.5 7.8 6.3-0.7 3.2-1.2 2.1-2 2.3-3.1 5 4.4-2.1 5-0.1 0 5.8-6.1 3.4 3.3 6.9-0.1 0 0.8 5.2 0.4 2.4 0.2 0.3 0.2 1.8-7.7 0.8-7.1 5-0.9 0.6-2.2-10 1.2-10.5-3.5-11.3-2-2.6-5.7-12.9-3.2-14.2-5.6-13 8.7-6.5 12.7-5.2 2.4-2.2 6.4-5z" id="10475" name="10475">
  </path>
  <path d="M512.8 685.5l15.6-2.2 2.9-1.2 2.3-5 0.3 2 1.4-1.2-0.2-1.1 2.9-1.3-0.7-4.7 1.5-0.2 0.5 3.7 1.4-1.5 0.9 5.5 0.9 1 1.2-1 5.8 6.8 2.8 3.4 2.4-2 2.9 3.4 1.1-0.9 5.8 6.8-5.8 5 8.6 10.3-2.3 2 18.4 21.6 0.6 1.9-3.7 2-9.5-0.7-3.2-5.3 0-2.6-4.4-1.8-0.3-3.7 1.7-4.9-0.7-1.4-4.4-0.5-41.3 6-0.8-5.9-2.2 0.5 1.8-4.1-3.2-19-1-9.7z" id="11229" name="11229">
  </path>
  <path d="M879.1 528l10.1 3.9 0.3 7.7-3.8 16.7-0.3 11.8 0.6 2.7 0 1.5-0.8 2 3 8.1 2.5 12-0.5 2.4-9.3 4.3-6.5 1.1-10 6 0 13.4-1.4 0.8 4.5 9.2-0.8 1.2-4.2 0.2 2.2-4.6-1.8-1.8-2.9 1.5-2.9 4.5-3.2 1.3 2.8-12.3-4.2-9.8-4.3-4.4 5.2 4 3.6-7.8-3.7-3.8-0.8-5.4 1.2-2.5-0.6-3.2 2.4-2.8 3.3-1.4 4-5.7 3.8-8.1 2.4-3.5-5.4-0.9 0-3.5 1.7-3.5 1.3 0.6 1.7-3.5-1.4-0.6 1.7-3.6 1.4 0.7 6.2-15.1 2.9-9.8z" id="11422" name="11422">
  </path>
  <path d="M562.6 299.1l-2.5-3.4-4.4-0.6-17.6-9.8 2.9-5.2-2.3-1.6 2.9-5.3 4-1.4 2.2-4 0.7-1.3 5.1 2.9 3.3 3.2 2.3-1.2 3.6 5.3 3.2 8.2-0.5 10.5-2.9 3.7z m-7 17.2l7.4-10.9 6.9 0.5-2.8-3 2.1-6.2-1-5.9 3.1-8.3 5.9 1 2.5 4.4 8.2 5.5 2.3 6.1-2.3 4.1-5.2 5.3-5.9 8.3-1 4-6.9 5.2-13.2-4.5-0.1-5.6z" id="10035" name="10035">
  </path>
  <path d="M481.9 387.1l-3.6 6.5-9.6-5.3 0.7-1.3-4.6-2.6-0.7 1.3-9-5 0.7-1.3-5.2-1.2 2.2-4.1-4.4-2.7-4.3 8-0.9-0.7 1.9-3.5-3.6-2.9 3.9 0.5 4.8-6.7 1.1 0.5-0.9 1.3 7.4 4.1-2.6 1.4 2.8 2 3.9-1.3 15.6 8.9-0.7 1.3 5.1 2.8z" id="10018" name="10018">
  </path>
  <path d="M661.5 506.9l0.4 1.1 3.8 24 3.5 1.7 1.2 6.4 1.6 0.4 1.6 8.6 1.5 7.9 4.4-0.8 3.1 16.3-4.4 0.9 1.3 7-4.3 1-4.5 2.9 4.3 7.6 1.1 1.1 5.1 8.8-2.2 6.3 2.6 4.8-0.3 2-7.8 2.2-7.1 5.5-3.8 0.3-2.9-9-3.7-2.5-1.6-3.1-2.4 3.6-1.9-2.3-3.7-6.6 3.6-2.8-5.7-10.2 5.8-3.3-5.7-8.5 1.4-0.8-7.6-13.3-4.6-32.4-2.7 1.6-2.3-3.4 8.1-5.2 1.2-2.5 6.9-7.1 8.6-6.2 8.1-2z m-12.4 89.2l2.5 5 2.9 2 2.9-0.5 7.7-7.1-2.4-8.4-7.5 4.2-6.1 4.8z" id="11208" name="11208">
  </path>
  <path d="M637 239.1l-0.1-0.7 59.5-10.6 2.8-1 2.1 0.1 1.8-0.4 0.2 1.2 4.1 14.3-0.2 2.8-2.9 2.7-3.6 8-1.9 6-2.1 2.7-3.3-5-6.3-2.9-0.2 1.6 3.3 0.4 2.5 2.5 0.2 2.8-1.7 5.3 2.8 2.8 1.4 4.2-3.7-0.3-0.3 1.6-6.6 0.2-5.9-2.1-1.6-9.5-2.3 0.9-3.2-1.7-7.9-0.7-5.8-8.4-10.2-4.1-4.9-3.9-6-8.8z" id="10473" name="10473">
  </path>
  <path d="M509.6 264.1l1.5 0.8 0.6-1.2-1.5-0.8 4.2-8.1 0.2-3 0.9-1.9-2.2-1.3-1.4-0.8 4.7-4.1 12.3 6.8 4-1.5 3.4-4.5-0.7-4.3 3.2 1.8-4.2 11.7 6.7 5.4 3.1 0.7 1.2-0.1-2.6 4.6 4.8 3.5-2.2 4-4 1.4-2.9 5.3 2.3 1.6-14.1-8.1-5.2-1.2 2.9-5.3-4.5-2.5 1.1 2.5-4.3 9.8-3.5-0.2-4.5-2.5 1.5-2.7-3.2-1.7 2.4-4.1z" id="10027" name="10027">
  </path>
  <path d="M819.5 725.7l-0.9-6.6-6.7 2.1-8 0.7-0.1 3.2-3 0.7-0.4-3-5.4 0 2.7-1.1-0.4-5.1-1.9-5.3-6.9 0.4 8.2-9.7 1.3-3.1-1.3-2.7 7.3-9.1 6.6-1 1.8 2-0.2 2.7-2.9 10.4-1.5 1.8-2 2.7-3-0.7-3 3.7 1.5 2.8 1.6 1.5 4.3-4 1.6-4.5 2.2-1.7 1.2 5.8 1.9 2.3 5.8-0.8 1.9 0.9-4.4-2.2-0.3-3.2 1.5-4.9-0.6-4.4 2.4-9.9-7.8-5.3 0.9-3.2 10.5-1.4 5.4 1.3 5.4 4.9 8.4 2 10.4-3.4 2 0.5 2.1 0 4.1 8.1 7.8 10.9-0.2 9.4 1 8-2.6-0.2-2.4-0.3-9.3 0.7-7.2 5.2-1.1 1.1-5.4 0.9 0-0.1-1.2 0.1-18.3 0.1-3.4 0z" id="11691" name="11691">
  </path>
  <path d="M413.5 686.2l0.8 0.4 4.4 3.5-3.3 4.6-1.9-1 1-1.5-3.4-2.6 2.4-3.4z" id="11425" name="11425">
  </path>
  <path d="M759.3 391.5l-10.6 8.4-0.3 6.6 6.7 1.4 1.1 7.8-6-0.3-3-0.5-0.1-2-2.2 0.7-7.4-2.8-6-4.6-3.4 1-14.1-1.8 2.1-7.1 2.6-2 1.1-8.6-5.3 1.1-3.6-6.6 13-8.8 21.7-8 5.6-1.3 8 2.1-2.5 25 2.6 0.3z" id="11355" name="11355">
  </path>
  <path d="M634.2 59.4l-0.7 2 0.6 9.5-0.3 5.2 2.2 2.8 0.5 5.7-4.8 13.3-11.3 5.4-1.5 2.9-6.6-1.5-4-1.6-0.8-4-4.2-2.1-1.2 5.5-4.4-4.1-6.2-0.5-5.4-3.2-0.6 9.2 4.3 1.1-3.2 3.2-4.4-1.5 0.1-2.8-3.6-0.8 1.9-8.1 2.6-6.3 4.8-19 1.3-2.3 4.3-20.6 1.7-2.7 21.1 7.7 1 0.7 16.8 6.9z" id="10471" name="10471">
  </path>
  <path d="M557.3 633.5l3.5-0.3 1-0.9 8.8-5.8 4.4-3.7 1.7-2.4 1 1.2 3.2-1.9 1.2 14.5-2.5 2.1 2.9 2.9 2.6 0.9 16.6 9.5 13.1 8.7-3 2.7 5 0.3 0.6 0.9 14.8 24.2-2.2 1.4-4.4-0.8-11.2 8.3-0.3 3 22-1.7 10.1 31.1 0 5.6 3 4.8-4.8 10-3.3 2-8.4 2.3-6.5 0.5-7.3 2.5-1.9-6.3 0.9-5.4-1-2.8-18.7 4.1-5-0.3-7.4 0-10.2-3.4-10.7-0.1-3.5 0.7 2.8-3-2-3.3 8.6 2.3 9.5 0.7 3.7-2-0.6-1.9-18.4-21.6 2.3-2-8.6-10.3 5.8-5-5.8-6.8-1.1 0.9-2.9-3.4-2.4 2-2.8-3.4-5.8-6.8-1.2 1-0.9-1-0.9-5.5 7.7-10.7-0.4-3.1 4.8-0.7 2.8-1.9-2.2-2.8 4.1 0.7 1.4-1.7-1.9-4.3-0.4-4.9 1.5-0.1-0.4-5-1.5 0.2 1.1-5z" id="11234" name="11234">
  </path>
  <path d="M803.3 387.8l-0.4-1.3-7-15.5-2.3 0.3 1.2-3.6-6.6-17.4 16.6-6.5 6.5-1.8 0.5 3.3 1.6-0.4-0.6-3.3 3.6-0.9 2.8 3.5 7-2 3.1 1.5 7.3 7.9 0.4 3.7 7.8 4.3-8.7 2.1 1.4 1.7 0.5 6.5-3.3 0.9 0.9 1.7 3-2 0.5 2.3-2.7 1.4-2.2 5.3 3.1 5.3-1.6 1.9-3.9-7.1 0.1-1.5-10.3 2.2-6 2-6.5 3.4-5.8 2.1z" id="11361" name="11361">
  </path>
  <path d="M917.9 378.7l4 3-7.6 8.8 3.4 2.9 5.5-3.7 2.5 9.1-1.4 0.4 2.2 7.7 2.1-0.6 0.4 4.6-1.3 0.3 1.1 3.9-11.7 3.2-0.2 4.8-1.2-4.3-7.2 2-5.9-15.4-3.9-12.3-3.1-3.7 1.2-2-3-4.3 1.3-2.3 1-2.6 6 2.3 3.7-0.7 2.2 2.2 2 5.7 7.9-9z" id="11004" name="11004">
  </path>
  <path d="M445.7 462.6l-2.7-1.7-2.7 4.5-7.6-4.6 0.7-4-1.2-0.1 0.6-3.8-5.7-0.8 5.9-0.5 0.9-6 3.7-6.7 6.5 0.8 2.9 1.9-1 4.6 16.4 7.9-1.2 3.9-2 4.7-2.3 4.5-1.7 1.3-3-1.9-2.6-1.7-3.9-2.3z" id="10013" name="10013">
  </path>
  <path d="M470.4 614l-7.9-6.3-6.8-5.5 0.7-1.2-6.9-5.6 14.8-18.7 1.9-2.4-6.6-5.2 1.6-2.7-5.8-10-0.2-0.6 5.3-8.2 7.1-0.1 3.6-7.9 1.1-1 8.3 4.2 18.7 11.2 0.7 0.2-2.2 4.2-12.5 19.7-0.8 0.1 8 5.1-2.5 6.8-4.9-3.6-3.2 4.1 2.4 16.7-2.4 0.4-11.5 6.3z" id="11215" name="11215">
  </path>
  <path d="M672.9 164.7l8.2-0.2 11.6-1.3 9.6 0.9 10.3 2.1 2.1 1.9 3.8 0.5 0.5-1.7 0.5 1.2 0.8-0.8 5.8-8.8 3.5 11.3-1.2 10.5 2.2 10 0.9-0.6-0.4 7.2-1.7-0.6 0.7 12.5-0.3 6.3-8.2 6.2 4.5-4.6-1.4-2.5-4.8-1.7-4.9 2.9-1.7-4.1-3.3 1.5 0.2-11.6-1.6-0.5-0.4 5.5 0.4 5.3 0 4.6-4.7 4.8-3.4 1.4 0.4-1.5 6.7-7.5-0.1-1.6-5.1 0.9-4.2-2.2-11.2-10.1-0.7-2.9-3-1.1 6.5-2.4-2.9-2.5-14.2-24.1 0.2-2.6z" id="10461" name="10461">
  </path>
  <path d="M238.8 808.6l-5.1-5.5-1.1 0.9-3.3-2.9-5 3.3-2.9-1.3 9.3-10-5.5-3.9-13.6-15.4-4.7 4.9-3.5 5.7-11.1 5.2-1.8 0.4-1.5-0.3 1.4-2.5 0.9-7.9-0.6-0.7-1.8-3-5.8 1.6 0-0.4-0.4-9.3 24-17.6 3.5-2.8 9.9-11.5 0.8-5.2 11.4-0.9 7.5 5.7 0.7 4.3 4.4 2.5 2.1-1.3 0.5-5.5 2.1-2.4 0-4.2 2.2-2.7 0.2-5.7 5.8-12.5 3-2.6 0.3-2.4 1.6 0 0.2 7.2 4.4-1.5-0.3-5.9 3.2-0.5 2.9 4.2 2.7 4 0 2.4-3.1 2-1.6-1.1-3.5 4.3-5.9 13.4-4.6 6.5 6.3 7.5 1.3 7 1.3 0.9 3.3-1.9 2.4-3.9 9.7-8.1 11-12.2-1.9 3.1 5.7 3.4-5.5 5.3 6.8 5.8 2.4-2.6 6.7 4.5-2.3 3.9 7.1 3.9-1.4 2 6.4 4.4-4.7 3.6-6.1 8.7 2.8 3.9-4.6 5.7-8.7 10.8-0.5 0.6-7 8.7-2.2 2.7-1.9-1.2-4.2 3-5.4 9.1-0.1-0.1-0.4 0.3-3.4-4.4-1.7 0.4-3.3-2.6 0.1-2.9-2.1-0.4-12.6-10.7-5 6.1-6.6 6.6z" id="10306" name="10306">
  </path>
  <path d="M270.2 702l6.7-8 1.1-8.9-2.1-0.6-4.1-2.4-1.4-13.5-5.1 0.5-2.8-8.2 2-4.2 2.1-1.7 6.1 3.2 5.2 4.9 5.1-2.3 5.2-4.1-2.3-9.2-1.6-12.9 5.5-0.8-1-5.6-2.1 0.3-1.5-3.6-1.8-11.2 2.9-1.9 5.2-1.3 22.5-5.6 1.3-0.3 11.3 0.7 4.4 2.4 3.6 4.2 1.1-0.1 1.4 1 3.8 5.6-4.2 0.8 0.8 7.7-4 0.4 0.5 3.2-1.7 0.6 1 3.7-1.2 4.6-3.2-1.2 0.8-2.4-3.9 0.6 1.8-7.6-5.6 7.1-2.9-2.3-2.6 1.7-3.7 6 2 1.6-3.3 5.3 0.6 8.2-0.3 6-1.1 1.5 2.8 1.6-0.8 5.3-2.6 0.4-6.1-2.9-1.1 3.2 2.9 3.7-1.7 4.2-4.4-2.4-0.2-3.3-2.7 5.9-1.9 0.8 2.7 4 0.4 3.1 3.2-1-1.5 4.3-2.5 3-6.3 1.9-1.2 3.5-2.2 0.8-5-2.6-8.9 2.6 1.8 4.2 3.6 0.4-5.9 1.6-2.9-4.2z m33.9-22.6l1.3 0.6 2.8 1.2-0.6 0.8-2.6 0.5-2.7-1.6 1.7-1.3 0.1-0.2z" id="10301" name="10301">
  </path>
  <path d="M220.4 654.2l1.1-6.2-0.4-6.4 3.4-2-3.3 0.9 0.7-6.3 3.4-11.4 1.2-0.1 20.7-2.8 2.9 3 0.8-0.7 0.1 6.3-2.4 7.4-3.5 4.9 2.6 5.1-4.9 11 2.3 0.3 0.3 3.6-2.3 0.3-0.6-2.4-2.8 1.3-3.8-2.7-0.4 4.1-8-0.3 0.5 3.9-0.4 6.8-9.1-1.1 0.7-3.1 2.6 0 0.5-3.5-2.6-0.2-2.1-2.2-5.8 8.1 6.1-9.6 2.5-6z" id="10302" name="10302">
  </path>
  <path d="M296.2 733.5l-5.7-3.4 1.9-3.1-11 12.2-9.7 8.1-2.4 3.9-3.3 1.9-1.3-0.9-1.3-7-6.3-7.5 4.6-6.5 5.9-13.4 3.5-4.3 1.6 1.1 3.1-2 0-2.4-2.7-4 5.9-1.6-3.6-0.4-1.8-4.2 8.9-2.6 5 2.6 2.2-0.8 1.2-3.5 6.3-1.9 2.5-3 1.5-4.3-3.2 1-0.4-3.1-2.7-4 1.9-0.8 2.7-5.9 0.2 3.3 4.4 2.4-0.1 0.2-1.7 1.3 2.7 1.6 2.6-0.5 0.6-0.8-2.8-1.2-1.3-0.6 1.7-4.2-2.9-3.7 1.1-3.2 6.1 2.9 2.6-0.4 0.8-5.3-2.8-1.6 1.1-1.5 0.3-6-0.6-8.2 3.3-5.3-2-1.6 3.7-6 2.6-1.7 2.9 2.3 5.6-7.1-1.8 7.6 3.9-0.6-0.8 2.4 3.2 1.2 1.2-4.6-1-3.7 1.7-0.6-0.5-3.2 4-0.4-1.6 0.4 2.9 2.3-2.6 0.3 0.7 13.2 7.5 2.9 0.1 0.6-7.6-3-0.9 6.5-0.1 4.4 5.2 7.5-1.6 3.3-5.2 5.6-7.7 16.5-3.6 6.1-6.1 10.6-3.6 10.7-2.4 4-14.7 14.7z" id="10304" name="10304">
  </path>
  <path d="M100.1 910.8l-2.3-5.6 0-7.4 16.5-4.3 3.8-2.2 0.7 2.7-1.2 2.5-14.4 13.9-3.1 0.4z m-32.9-37.5l1.6-0.8 0.3 1.2 10.2 1.3 1 4.6 2.2 2.1 7.4 30.4-6.9 0.9-1.2 0.2-21.4 10.8-5.6-1.2-7-11.7-1.3-6.8-1-5 5.3-12.5 6.7-6.3 1.5-1.4 0.1-0.1 2.2-2 7.7-1.1-1.8-2.6z" id="10307" name="10307">
  </path>
  <path d="M190.5 790l2.5 14.3 2 8.8 1.5-0.2 0.6 3.8-2.1 3.1 4.4-3 0.2 4.4 11.8 15.8 3.3 0.9 4 3.1 3.3 0 0.1 1.5-5.8 1.2-1.7 1.4-16.2 13.5-1.4 1.2-25 13.8-2.3 1.2-6.6-2.1-18.4 12.1 0.7-5.1-6.8-13.5-3-4.5 7.1-9.5-1.8 1.1-2.2-5.3-8.6 1.5-0.3-1.6 7.2-4.2-7.2-20.5-4.8 1.5-7.7-24.1-3.5 0.5 2.8-1.7 9.9-3.6-2-1.6 6.4-2.6 4-3.1 10.2-11.2-1-2.5-4.3-17-1.9-6.1 9.9 4.7 7.8-1.9 4.9 7.2 7.6 4.1 2.2 1.9 3.7 8.2 7.5 0 1.6 0.9 0 0.4 5.8-1.6 1.8 3 0.6 0.7-0.9 7.9-1.4 2.5 1.5 0.3z" id="10312" name="10312">
  </path>
  <path d="M521.3 498.9l-6.4 1.3-2.8 0.6-4.7 0.9-12-0.7-0.4-5.2-3.1 2.6-0.6-5.7 2.1 0.7-1.3 4.3 1.7-3.5 3.1 2.1-1.3-3.1 3.8 3.3-4-4.9 1.5-2 5.6 3.6-5.6-4.8 2 0.3-5.6-4.7 3.3-0.2-3.6-3.6 0.6-0.6 5.3 4.8 0.1-2.2-3.2-4.7 4.4 3.8 1.1-0.6-0.5-3.5 1.4-6.7 2.3-8.4 7.9-13.1 1.7-2.4-0.1-2.3 6.2 1.4 0.3-1.7 3 2.5 1.4 3.1-2 2.2 2 1.7 5-6.1 1.6 3.8 0.9 7.1 15.1-1.9 0.3 2.4 4.9-1.8 3.2 0.8-1.9-5.7 2.3-0.9-0.9-2.7 12.4-4.4-2-5.5 2 2.5 5.8 13.6 2.3 7.4-19.2 6.6-5.6 1.7 1 2.9-4.2 1.3-0.1-1.4-5.4 0.6-11.7-0.1 1.4 11.5-6.7 3.7 1 1.2-5.8 4.9 0.7 3.9z" id="11211" name="11211">
  </path>
  <path d="M468.9 531.7l-0.7 1.3 2.7 3.1 1 2.2-0.7 1.3-3.6 7.9-7.1 0.1-5.3 8.2-0.7 0.9-1.8 5.9-1.4-0.7-1.9 0.8-0.9 2.4-4.9-1.2-1.7 3.8 3.5-9.5-2.7 4.1-5.4 0.5-2.9 7.3-5.8 0.8-2.5-0.4-0.6-0.5-0.9-1.3-1.4-10.7-0.7-1.7 2.5 1.2 1.6 12.6 0.1 0.2 0.7 0.2 0.3-1.2 5.7-0.7 2.2-6.1 0-2.2-2-1.5-2-1.1-1.4-0.9 0.1-1.6 2-2.5-3.4 2.5-1.9-1.9 2.7-2.9-5.7 5.3 1.5-3.5-1.9-2 1-1.5-0.6-2.9-2.6 0.2 1.2-1.4 1.1-1.6-0.3-2.2-1.4-0.9 6.9-5.9 10.2-8.8 0.9 1.7 5.8-1.4 3.4 1.2 1.5-4.3 11.2 4.9-0.3 0.7 7.3 3.7z" id="11231" name="11231">
  </path>
  <path d="M917.9 378.7l-7.9 9-2-5.7-2.2-2.2-3.7 0.7-6-2.3 2.2-3.1 2.2-1.9 2.8-1.3 5.8-0.6 0.9 0.7 7.9 6.7z" id="11005" name="11005">
  </path>
  <path d="M577.3 363.2l8.4-14.2 3.6-2.5 5.4 5.6 10.7 2.8 3.5 0.3-1.4 1.7-1 1.5-2.8 4.6 0.8 1.7-1.2 2.6-1.6-1-1.2 3.8-3.1 4.7-2.3-0.5-3.1 4.9 1.8 3-1.7 2.6-4.6-1-1.7-0.2 0.7-1.2-10.2-6.3 2.2-5.3 3.4-4.7-4.6-2.9z" id="11103" name="11103">
  </path>
  <path d="M486 484.6l-1.6 5.7-0.5 10.1 0.7 7.5 10 2.9 1.1 7.7-11.6-0.6-2.5 1.2-3.8 3.7-3.5-1.7-5.4 10.6-7.3-3.7 0.3-0.7-11.2-4.9-1.5 4.3-3.4-1.2-5.8 1.4-0.9-1.7 2.1-1.7 4.4-2 1.3-1.5 1.3-3.2 1.6 0.6 2-1-2-2.6 0.4-1.1 0.7-1.9 1.1-3.8 0.6 0.2 2.3-4.4 2-5.3 1.3-2.6 2.5-4.4 1-2.8 2.8-2.6 9.4 0.8 12.1-1.3z" id="11201" name="11201">
  </path>
  <path d="M391.3 631.5l2.4-0.5 1.9-2.7 0.1-3.2 15.8 6.4 15.9 9.9-5.8 18.6-9.6 12.8-2.9 6.6 1.4-0.2 2.2-5.3 4 2-3.2 10.3-2.4 3.4 3.4 2.6-1 1.5 1.9 1 3.3-4.6 5 1.9 2.2-1.6 2.4 1.7-6.5 8.7-2.8-1.2-8.7-2-1.2-0.3-6.1-1.7-7.9-9.9-5.1-6.4-0.6-3-3.9-21.9 4.5-17.9 1.3-5z" id="11209" name="11209">
  </path>
  <path d="M433 482.5l1.7 3.7 3.9-0.6 1.9 4.6 1.7 2.4-3.3 2.6-1.1-2.2-1.9 0.6-0.7 0.7 0.3 1.7-2.5 0.3-2 0.3-4.8-3.6-2.9-7.5 1.7-3.1 2.6 0.3 4.3 1.7 1.1-1.9z m15.2 34.3l-1.3 3.2-1.3 1.5-3-1.1 0.8-1.7 1.3-3.1 3.5 1.2z m1.6-3l2 2.6-6.4-2.3 0.7-1.5 3.7 1.2z m1.1-3l-0.7 1.9-3.4-1.7 0.8-1.7 3.3 1.5z m6-13.3l-2 5.3-3.6-1.7 1.6-3.3 0.9-1.8 3.1 1.5z m3.8-7l-2.5 4.4-2.3-1.4 3.1-3.8 1.7 0.8z m-50.9 37.5l2.7-6 9.4-11.4 6.5 0 0.7 0.9 4.5 4.8-1.5 6-4.9 1.6-6 2.6-8.7 3.4-1-0.7-1.7-1.2z m-31.5-12.7l9.6-18.8 1.4-1.2 1 0.5 2.2 3-8.7 19.6-1.6 2.6-3-1.6-1.5-2.7 0.6-1.4z" id="10004" name="10004">
  </path>
  <path d="M538.1 285.3l-4.3 7.9-14.3-7.7-2.3-1.3 2.2-4.1 0.1-5.2 2.2-4.1 5.2 1.2 14.1 8.1-2.9 5.2z m-24.7-10.2l3.1 1.7-0.4 1.5-3.4-1.9 0.7-1.3z" id="10026" name="10026">
  </path>
  <path d="M523.3 312.1l7.7 4.3 0.8-1.4 9.9 5.4-0.8 1.5 1.8 1.2-0.4 2.8 2.4 11.6-3.2 5.7-2.2-1.1 1.1-4.2-10.7-4.7-8.6-4.9 0.7-1.4-5.1-2.8 6.6-12z m25.9 17.3l2.2-3.3 1.3 0.5-2.4 2 0.3 1.4-0.9 1.7-0.5-2.3z" id="10128" name="10128">
  </path>
  <path d="M431.2 468l-4-2.3-1.6 2.6 0.5-12.7 6.1 1.1 1.2 0.1-0.7 4-1 5.7-0.5 1.5z" id="10282" name="10282">
  </path>
  <path d="M451.6 672.3l10 9.9 11.3 7.4 0.3 1.7-0.3 5.6 4.4 22.8 0.1 0.3 2.9 20.4 0.3 2-1.9-1-0.2 0.9-3 3.2-0.2-0.9-2.9 4.2-0.7 0.2-6-3.9 2.6-6.4-9 5.2-6.8-2-0.2-1.8 3.2-3.2 0.2-2.2 6.6-4.5-2-1.5-8 4.7 3.8-2.8-1.2-3.8 2.6-2.1-4.8-0.7 2.5-4-4.5 2.5-2.8-6.9-0.2-0.2-12.1-10.6-5.6-2.6-0.4-0.1 0.8-4 6.9-10.1 4-2.7 10.3-13z" id="11214" name="11214">
  </path>
  <path d="M480.3 740.4l8.4 2.1 13.4-2.5 2.1-1.1 1.9-0.1-0.3 1.4-6.3 1.5-0.6 2.4 6 1.1-0.4 2.4-2.4 0.7-1.3 9.3 5.1 1.6 11.6-0.7 0 2.4-36 5.5-13.8 2-1 0.2-17-0.6-0.4-0.2-5.4-3.6-8-3.5-2.1-0.9-1.5-7.6 5.4-6.8 5.5-1.4 10.4 1.4 2.6-0.5 0.5 2.3 11.1 2.6 0-1.6 3.9 0.8 0.7-0.2 2.9-4.2 0.2 0.9 3-3.2 0.2-0.9 1.9 1-0.3-2z" id="11224" name="11224">
  </path>
  <path d="M788.2 350.3l-3.7-9.5 2.1-0.7-4.8-15-1.2-9.2-1.3-0.4 6.7-4.1-3.1-4.8 15.1-0.7 1.2-1.1 1.9 3.8 11.3 6.8-0.4 0.3 0.4 0.5 10.4 13.2 0.2 0.2 0.7 2.3 2.3 8.3 3.3 3.5-3.1-1.5-7 2-2.8-3.5-3.6 0.9 0.6 3.3-1.6 0.4-0.5-3.3-6.5 1.8-16.6 6.5z" id="11360" name="11360">
  </path>
  <path d="M893.8 383.1l-6 5.5-4.3 10.1-4.6 6.4-11 8.3-1.7 2.5-4.4 0.1-1.4-4.9-9.6 2.2-2.2-1-3.4-4.6 9-1.9 4.9 0.1-2.2-6.9 3.5-2.3-2.9-8.2-2.1-1.7 0-3.8-4.7-8.9-3.6-2.2-1.5 2.5-3.7-0.1-0.4 1.1-1.6-4.1-1.9-1.4-0.5-6.5-1.4-1.7 8.7-2.1 0.4-0.3 4.4-2.2 3.1 5.1 7.2-2.7 4.8-0.8 5.9-5.6-1.8-3.5 2.7 2.4 4.9-7.6 20.3 16.1 12.4 10.8-5.8 0.6-2.8 1.3-2.2 1.9-2.2 3.1-1 2.6-1.3 2.3z" id="11362" name="11362">
  </path>
  <path d="M668.4 424.8l-0.5-5.5-2.5-2.8-1.7-5.7-0.6-8.4-0.5-2.9-0.7 0.2-2.1-4.7 1.3-0.7-0.4-0.8-3.6-10.1-0.8-6.2 10.4-1.5 10.8-0.6-0.5-4 2.3 3.8 5.2-0.5-7.4-6.3-2.9-5.2 0.8-0.3 5.8-0.2-2.8 4.3 6.2 3.7 4.9 1.7 4.6-1.7 3.2-2.5 5.8-4.7 1.2-2.6 4.6-1.3 4 5.6 0.1 3.2-2.9 8.8 0.7 3.8 0.5 1.5 3.6 6.6 5.3-1.1-1.1 8.6-2.6 2-2.1 7.1-9.5 3.6-5.3 3.4-3.7 2.3-6 3.1-4.5 1.3-1.5 0.4-15.1 5.3z" id="11368" name="11368">
  </path>
  <path d="M672.4 471.1l3.9-2.9-0.6-2.8-4.8-5.8-10.6-15.7-1.4 0.9-1.6-2.3 1.3-3.3-0.4-1.2-1.3 2.5-3.3-3.5 2.2-2.1 1.5 0.7 0.2-0.3 4.8-6.5-1-1 7.1-3 15.1-5.3 1.5-0.4-3.2 2.8 2.4 5.9 4-0.2 1.6 4.1-2.8 1.1 1.8 5.8-3.4 1.8-5.1 10.7-2.2 0.4 1.9 21.2-1.4-0.3 1 1.7-0.7 0.6-2.6 0.3-0.2-2.7 0-0.4-3.7-0.8z" id="11374" name="11374">
  </path>
  <path d="M767.3 721.9l-1.1 4.1-3.5 0.3 0.3 4.9 1.8 3.6 4.1 1.7-8.6 2.2-4.8 1.7-9 3.2-0.3-2.4-3.2 0.5-3.9-4.9 1.3-0.6 0.4-4.7 1.8-1.2 5-4 6.4-3.3-1-1.6 2.8-1.4 5.9 3.4 2.9 0.1-6.2-3.8 3.2-3.9 5.7 6.1z m-50.5-8.4l4.1-2.7 5.2 0.6 3.7-3.8 2.7 2.4-0.1-4.3 2.3-4.7 0.7-6.2 3.9-7 0.2-4.4-1.5-2.6 0.6 4.3-1.8 3.6-0.4-2.9-3.1-3.4-0.3-2.2 5.1-5.7 5.1 2.3 1.7-1.7 2.8 3.7-2.2 0.5 2.2 8.6-1.5 5.1-0.3 0.8-0.8 1.7-1.6 0.1 0.2 2.6-0.7 3.6-0.9 1.9-0.3 4-1.3 3.9-1.9 2.8-0.4 2.2-1 1-5.5-0.8-11.9 0.9-4-1.9 1-2.3z" id="11693" name="11693">
  </path>
  <path d="M671.1 756.6l-0.5 4.1-5.3 3 3.3 7.4-4.6 2.4 2.2-0.5-0.9 4.7-9.6 4.4-9.7 4.5-5.9 1.9-22 7.3-14.2 2-20.1 7.4-36.3 20.9 0-1.2 0.5-23.3 5.1-5.6 0.2-0.8 8.9-1.1 2.5-4.7 2.3 0.6 3.5-3 8-1.1 5.5-1.6 6-3.7 3.2-0.8-0.4-1.6 6.7 3.5 1.7 2.6 6.2-1.3 4.6 0.2 6.7-4.7 0.7-2.8 4.4-3.4 4.8 1.3 9.7-1.1-0.6-0.9 8.3 0.5 4.5-1.9 20.6-13.6z" id="11697" name="11697">
  </path>
  <path d="M844.9 468.8l0.8 2.6-1.4 0.5 1.1 3.6-17.8 5.7-4.3 2.3-11 2.5-2.3-0.5 0.8-3.2 6.5-3.9-17.2 5.4 3-1.9-0.6-2.9 0-1.2-3.7-8.2 14.5-4.6-3.6-5.4 0.5-3-3-7 6-4.8 11.7-3.5 2.3 3.6 5.2 3.6 3.3 4 0.4 3.9 2.5 2.6 3.3 7.6 1.4-0.8 1.6 3z m-43.1-31.7l-0.6-1.7 5.7-2.1 3.7 10.4-4.5 4.1-1.6-3.5-1.2-3-1.5-4.2z" id="11423" name="11423">
  </path>
  <path d="M878.9 405.1l8.9 6 1 9.2-1.5 1.7 1.1 4.5-7.4 1.6-1.9 7.4-2.3 2.6-11.2-3.4 2.2 2.9-20.8 16.6-7.8 4.4-0.6 0.4-2.5-2.6-0.4-3.9-3.3-4-5.2-3.6-2.3-3.6 6.7 0.9 8.5-0.4-8.8-6.7-5.3-6.7 3-0.7 27.3-6.1 0.9 3.4-1.1 1.6-0.1 1.7 5.8-6 4.4-6.4 1.7-2.5 11-8.3z" id="11427" name="11427">
  </path>
  <path d="M883.1 453.7l-4 0.9-0.6-0.5-4.5 5.5-29.1 9.2-1.6-3-1.4 0.8-3.3-7.6 0.6-0.4 7.8-4.4 20.8-16.6-2.2-2.9 11.2 3.4 2.3-2.6 1.5 0.5-0.5 2.7 3 10.7-1 0.8 1 3.5z" id="11428" name="11428">
  </path>
  <path d="M773.7 491l4.3 7.8 1.9-0.8 1.5-0.8-4-7.4 3.7-1.5-1.8-3 3.3 2.1 5.8-3.7-0.6-2.1 14.7-2.6 0.6 2.9-3 1.9 17.2-5.4-6.5 3.9-0.8 3.2 5.6 14 3.5 4.9-9.4 6.9-2.7 0.1-0.5-2.8-6.2 4.3 1.5 2.7-10 5.1-5.3 1.7-0.8-1.3-5.5 3.1-0.7-1.2 1-0.6-3.1-3.2-3.5-5.5-4.2-5.3-2.9-9.8 1.1-3.2-2.2-1.1 1.7-1.5 5.2-4 1.1 2.2z" id="11433" name="11433">
  </path>
  <path d="M779.8 525.9l0.4-1.7 5.5-3.1 0.8 1.3 5.3-1.7 10-5.1-1.5-2.7 6.2-4.3 0.5 2.8 2.7-0.1 9.4-6.9 7.5 7.5-1.6 1.2 6.7 16 6.3 11.2-2.9 0.6 2.9 6-3.7 2.1-3.4 1.9-1.4-1-1.1 3.8 2.9 1.9-1.1 0.3 0.5 2.2-0.5 3.2-1.3 4.5-2.6 0.4 2.9 1.3-4.1 13-2.9-0.6 0.4 4.1 2.5-0.3 0.5 4.7-2.4 0.3-10.6-7.6-5.2-2.1-5.6-3.2-6.8-2.4-16-3-11.2-0.8 0.8-3.1 2.8 0.3 10.8-1 5.9 0.5 2.1-12.9-3.6-0.8 0.7-3.8-2.7-1.2-1.2-3.4 1.9-0.8-2.4-10.1-0.1-4.4-1.6 0.7-1.4-3.7z" id="11434" name="11434">
  </path>
  <path d="M628 599.2l-2 2.4 2.6 4 14.1 17.8 1.9 1.6 1.2 1.9 4 5.8-0.1 3.6-2.7-2.1-8.5 10.7-6.2 6.7-3 1.2-0.8 5.8-2.9 2.1-10.8-2.4-13.1-8.7-16.6-9.5-2.6-0.9-2.9-2.9 2.5-2.1-1.2-14.5-3.2 1.9-1-1.2 1-1.3 3-2.2-1.5 0.1-1.5-0.3-0.2-1.2 1.4-1.3 1.4-1.5-1-12.6-1.9-7.7 1.3-1.1 5.4 1.3 12.5 0 3-0.6 7.4-1.5 6.6-4.3 1.7 7.5 0.6 0.7 0.5-0.3 2.7 1.1 3.5 4.5 3.2-3 2.2 2.5z" id="11236" name="11236">
  </path>
  <path d="M496.4 523.1l0.9-4.5 2.2 4.1 9.4-1.5-0.6-3 7.8-1.2 0.5 3.1 4.3-0.7 0.3 1.5 0.4 3.1 2.3 14.8 0.2 1.4 3.6 1-3.5 1-4.4 16.1-7.4-2 2.7 17.5-2.4 0.3-0.7-1.4-10.8-18.6-1.2 0.1-0.7-0.2-0.3-5.3-1.3-2.5-0.9-1.5 2.9-11.1-3.4-0.9 0.8-5.4-2.2-3.9 1.5-0.3z" id="11238" name="11238">
  </path>
  <path d="M624.5 200.4l11.8-17.4 1.5-4.6 1.8-4.5 3.2-6.7 5.2 3 1.3 3.9 4.1 1.2-1.9 3.7-0.1 6.1-4.6 12 5.7 2.3 4.7-5.7-0.3 1.6 2.3-4.1 3.3 0.9 0.5 0.3 4.5 5 1.1 2.9 0.9 2.2-1.6 0.6 2.2 4 0.9 7.5-6.1-1.2-3.5-1.3-12.6-1.4-3.7 3.6-1.2-0.5-3.5-1.7-4 6.6-0.8 3.9-12.6-6.2-1.6-3.3-0.1 3.6-3.4-0.5-1-1.7 4.8-4.4 4.5-0.6 6.1-3 1.1-2.4-3.3 0.2-5.6-3.9z" id="10460" name="10460">
  </path>
  <path d="M630.3 424.1l-5.1 0.2-0.6 1.7-6.1 0.3-3.1-0.1 0.1-1.5-4.6-0.1-7.1 11.3-0.8 0.9-4.4-2.7-5.2-0.3-12-4.6-10.4-7.4 0.1-1.2 2.8 1 1.5-9.8 9.8-4.9 3.1-0.3-1-3.5 1.4-9.1 7.2 0.9 0.4-1.2 0.1-5.4-1-2.8-3.3-0.7 1.7-2.6-1.8-3 3.1-4.9 2.3 0.5 3.1-4.7 1.2-3.8 1.6 1 1.2-2.6-0.8-1.7 2.8-4.6 1-1.5 1.4-1.7 2.1 0.4 10.1 2.2-1.2 3.8-5.9 9.3 0.4 0 1.3-2.2 1.9 13.8 1.2 7.9-2.4 0.4 1.5 3.5 2.6 6.2-0.1 2.3 0.4-2.1-0.5-1.6 4.9-0.7 0.5 0 0.1 0.4 1 7.4 0.1 1.8-1.7 0.3 4.7 11.7-4.1 1 3.2 0.5 1.3 2.6z" id="11377" name="11377">
  </path>
  <path d="M573.8 467.3l17.5 1.4 6.6 0.6 0.2-1.8 1.2 1.9 8.2-1.6 20.2 11.6 7.4 3.8 7.3 0.2 9.6-1 7.6-5 8.2-3.3 4.6-3 3.7 0.8 0 0.4 0.2 2.7 2.6-0.3 0.7-0.6-1-1.7 1.4 0.3 2.2 10.6 1.9-0.8 0.2 3.1 3.9 6.4-5-0.7 0 1.6-5.2 1.2 0.7-3.5-8.2-1-9.3 1.1-0.3 7.4-2.4 3.1 3 5.7-8.1 2-8.6 6.2-6.9 7.1-1.2 2.5-8.1 5.2-4.6 1.6-2.7-3.9-3.7 6.1-7.4-11.5 1.2-0.7-2.6-8-6-4.4 2.5-3.3-12-8.9 1.8-2.4-3.6-2.7 1.8-2.3-16.1-12.5 1.9-2.4-5.3-7.3z" id="11385" name="11385">
  </path>
  <path d="M845.4 475.5l1.4-0.4 3.2 9.8 2.9 8.5 3.9 11.5 1.5 4.2-4.6 8.3-2.7 4.7-0.9-1.9-18.4 8.9-6.7-16 1.6-1.2-7.5-7.5-3.5-4.9-5.6-14 2.3 0.5 11-2.5 4.3-2.3 17.8-5.7z" id="11412" name="11412">
  </path>
  <path d="M711.5 515l26.4-9.5 2.9 0.1 8.6-2.9 4.7 11 4.3 10.2-8.8 4.9-28.9 10.9-4-12.2-1.4 0.5-3.8-13z" id="11419" name="11419">
  </path>
  <path d="M478.3 393.6l-5.8 10.6-5.2-2.8-1.7 3.1-8.6-4.7-4.7-3.4-0.7 1.3-9-5-2.3 0.6-0.5-2.1 2-7.4 2.3-4.4 4.3-8 4.4 2.7-2.2 4.1 5.2 1.2-0.7 1.3 9 5 0.7-1.3 4.6 2.6-0.7 1.3 9.6 5.3z m-15.7-5.1l-4.5-2.5-1.5 2.7 4.6 2.4 4.5 2.5 1.4-2.5-4.5-2.6z m-11.2-1.1l-0.7 1.3 4.5 2.5 0.7-1.4-4.5-2.4z" id="10001" name="10001">
  </path>
  <path d="M731.5 189.7l7.1-5 7.7-0.8 2 9.4 1.5 0.9-0.1 0.4-7.9-0.8 4.5 3.7 1.6 7-1.5 8.3 0.5 7.6 0.1 0.9 3.3 7.6-1.1 1.3-0.5 2 0.5 0.9 0.1 3 0.9 0.4 1.1-1.3 1.2 0.1 5.2-3 1.2 0.5 5.1 14.9 6.4 1 4.6 4.7 0.4 0.5-8.4 6.9-3.1-6.1-3.9-2.3 2.5 3.1 1 5.8 3.8 4.1 2.6 0.1 0.2 0.2 5.5 1.8 9.6 3.1 0.5 0.8 0 0.1 1.1 4.6-1.1 1.5-4.1 0-3.7-3.9-3.3-0.8-5.7-5-3.8 0.9-9.8-9.7-10.9-1.2-5.8 1.1-9.3 4.1-5.1 0.3-3.8 4.6 0.8 4.3-0.7 4-4.2-0.2-5.5-2.5-3.9-11.9 0.7-9.5-0.4-1.7 2.4-4.9 0.1-5.1-6.4-12.8-0.2-1.2 0.8-0.4 0-5.2 4.7-4.8 0-4.6-0.4-5.3 0.4-5.5 1.6 0.5-0.2 11.6 3.3-1.5 1.7 4.1 4.9-2.9 4.8 1.7 1.4 2.5-4.5 4.6 8.2-6.2 0.3-6.3-0.7-12.5 1.7 0.6 0.4-7.2z" id="10465" name="10465">
  </path>
  <path d="M506.1 738.8l-4.1-0.6 4.5-2.2-2.6-5.7 3.7-0.6 0.8-4.6 7.1-1 2.7-0.4 41.3-6 4.4 0.5 0.7 1.4-1.7 4.9 0.3 3.7 4.4 1.8 0 2.6 3.2 5.3-8.6-2.3 2 3.3-2.8 3-0.2 2.2-0.8 1.8 2.2 10.6-0.9 0.9 0.2-0.6-9.8 1.1-13.7-0.3-9.8 1.6-5.2 0.8-5.9 0.9 0-2.4-11.6 0.7-5.1-1.6 1.3-9.3 2.4-0.7 0.4-2.4-6-1.1 0.6-2.4 6.3-1.5 0.3-1.4z" id="11235" name="11235">
  </path>
  <path d="M699.2 226.8l-24-9.8-3.8 0.3-6.5-3.9 6.1 1.2-0.9-7.5-2.2-4 1.6-0.6-0.9-2.2-1.1-2.9-4.5-5-0.5-0.3-3.3-0.9-2.3 4.1 0.3-1.6 0.7-12.1-0.9-8.7 2-4.9 1.9-0.4 1.5-2.5 10.5-0.4-0.2 2.6 14.2 24.1 2.9 2.5-6.5 2.4 3 1.1 0.7 2.9 11.2 10.1 4.2 2.2 5.1-0.9 0.1 1.6-6.7 7.5-0.4 1.5 3.4-1.4 0 5.2-0.8 0.4-1.8 0.4-2.1-0.1z" id="10462" name="10462">
  </path>
  <path d="M308.4 776.9l-2.8-3.9 6.1-8.7 4.7-3.6-6.4-4.4 1.4-2-7.1-3.9 2.3-3.9-6.7-4.5-2.4 2.6-6.8-5.8 5.5-5.3 14.7-14.7 2.4-4 3.6-10.7 6.1-10.6 3.6-6.1 7.7-16.5 5.2-5.6 1.6-3.3-5.2-7.5 0.1-4.4 1.3 0.1 2.8 8.7 11.5 10.9 2.3 5 3 6.5 5.5 8.4 6 9.1-7.6 16.7-2 4.6-14.3 19.7-36 36.9-0.1 0.2z" id="10305" name="10305">
  </path>
  <path d="M519.1 630.3l4.4-2.7 2.2-3.1 1.1 1.4 6.9-0.3-0.2-2.8 4.6-0.4 6.1-0.5 0.2 2.9 7.6-0.6 0.4 4.9 3-0.3 0.4 4.8 1.5-0.1-1.1 5 1.5-0.2 0.4 5-1.5 0.1 0.4 4.9 1.9 4.3-1.4 1.7-4.1-0.7 2.2 2.8-2.8 1.9-4.8 0.7 0.4 3.1-7.7 10.7-1.4 1.5-0.5-3.7-1.5 0.2 0.7 4.7-2.9 1.3 0.2 1.1-1.4 1.2-0.3-2-2.3 5-2.9 1.2-1.5-11-4.1-28-1.9-1.8 1.5-1.4-1.3-8.9-1.6 0.3-0.4-2.2z" id="11210" name="11210">
  </path>
  <path d="M543.4 182.1l-6.1-1.5 5.9-4.3 8.7-15.4 8.5-16.4-0.1-4.9 5.1-11.4 4.7-4.8 5.2 0.7 0.7 5 1.6 3.5 2.2 0.3-1.2-5.1 3.5 1.8 6.3 0.6 5.4 2.3 1.4 1.8-0.9 7.8-5.2 9.6-4.3 4.5-3.9 6.8-3.8-1.6 1.4 4.2-1.7 4.1-1.1-0.5 0-6.3-3-5.8-3-6.1 3.6-1.8-1-2-6.9 4.3-3.1 10.4-2.8-1 0.5-6.6-1.7 0-2.2 5.6-6.1 8.8-6 10.4-0.6 3z" id="10034" name="10034">
  </path>
  <path d="M818.8 430l-4.4-9.4-4.6-14.9-4.4-7.4-2.4-6.7 0.3-3.8 5.8-2.1 6.5-3.4 6-2 10.3-2.2-0.1 1.5 3.9 7.1 1.6-1.9-3.1-5.3 2.2-5.3 2.7-1.4-0.5-2.3-3 2-0.9-1.7 3.3-0.9 1.9 1.4 1.6 4.1 0.4-1.1 3.7 0.1 1.5-2.5 3.6 2.2 4.7 8.9 0 3.8 2.1 1.7 2.9 8.2-3.5 2.3 2.2 6.9-4.9-0.1-9 1.9 3.4 4.6 2.2 1 9.6-2.2 1.4 4.9 4.4-0.1-4.4 6.4-5.8 6 0.1-1.7 1.1-1.6-0.9-3.4-27.3 6.1-3 0.7-7.2 1.6z" id="11364" name="11364">
  </path>
  <path d="M758.4 523.9l3.4 8.7 7.2 20.5-0.4 13.4-13.8-0.7-1.6 6.2-1.2 2.3-2 0.5-15.4-2.2-6.1 0.3-9.3-3.6-1-2.8-5.8-16.6 1.7-2.3 6.1 1 1.8-6-1.3-2.9 28.9-10.9 8.8-4.9z" id="11420" name="11420">
  </path>
  <path d="M731 325.1l-1.5 3.8-3.7 8.2-4.9 7.2-2.9 2.4-4.6-14.9-4-0.2-0.2 3.9-1.6 0.6-14.4-1.1-1.2-3.6-0.1-6 0.9-1.4-9.7 0.4-0.1-2.3-4.2-1.2-2.3-3.9 2.2-3.1 2.4 0.6 1-1.9 4.4-0.4-2.5-2.1 0.5-2.8 2.9-2.2-1.8-2.3 0.5-3.8 1.6-1.1 5 2.7 1-4.3 3.9-1.6 4.1 2.7 5.7-4.2-0.5-1.7 4-1.7-3.8 1.9 2.9 1.7 2.9 9-1.3 2.4 0.3 4.8 2.7-1 2.8 2.2 2.9-1.9 1.5 0.2 0.7 9.9 5.9-0.1 0.2 6.3 2.4-0.1z" id="11356" name="11356">
  </path>
  <path d="M777.4 489.8l-3.7 1.2-1.1-2.2-5.2 4-2.8 0.9-2.4-6.8-2.1-5.6-4.5-11.5-0.7-6 3.9-0.1-0.7-3.2-5.7-1.3 5.1-1.1-0.7-3.2 25-11.3 6.2-2.5 1.8 1.1 4.1-1.7 3.4-3.4 0.7 1.6 3.8-1.6 1.5 4.2 1.2 3 1.6 3.5 1.1 1.8 3 7-0.5 3 3.6 5.4-14.5 4.6 3.7 8.2 0 1.2-14.7 2.6 0.6 2.1-5.8 3.7-3.3-2.1 1.8 3-3.7 1.5z" id="11432" name="11432">
  </path>
  <path d="M462.5 607.7l-5.9 7.8-3.5-1.9-3.5-3.8 2.3-2.9-7-5.6-1.9 2.4-6.8-5.5 1.8-2.4-6.4 0.7-9.3 11.7-3.5-2.8 0.9-1.1-5.6-4.6 5.5-0.7-2-1.7 2.1-5 2.6 0.8-1.1-2.5 3.3 2.5 2.4-3.2-3.7-4.6 4.5 3.3 2.3-3-4.8-3.7 2.9-2.8 5.8 3.7 1.3-1.5-4.6-3.7 1.9-1.2 6.5 5 2-1.9-4.6-4.1 2.5-1.8 4.3 3.1 0.3-2.6 3.8 2-6.7-5.3 7 3.6-2.4-4.4 6 4.6 2.5-3.2-5.4-4.2 4.8-2.5 1.3-1.8 1-6.5 5.8 10-1.6 2.7 6.6 5.2-1.9 2.4-14.8 18.7 6.9 5.6-0.7 1.2 6.8 5.5z" id="11232" name="11232">
  </path>
  <path d="M536.5 349.5l0.8-1.5-15.6-8.7-10.2-5.7 5.2-9.5 5.1 2.8-0.7 1.4 8.6 4.9 10.7 4.7-1.1 4.2 2.2 1.1-5 6.3z" id="10028" name="10028">
  </path>
  <path d="M529.6 514.4l-2.4-16.4-5.9 0.9-0.7-3.9 5.8-4.9-1-1.2 6.7-3.7-1.4-11.5 11.7 0.1 5.4-0.6 0.1 1.4 4.2-1.3-1-2.9 5.6-1.7 4 11.8 1.8 8.3 5.7 4.2-2.3 3.1 1.9 1.5-3.9 2.2-7.9 3.3 0.7 0.5 1.1 7.1-4.7 0.7-0.2-1.6-4.4 2.3-9.1 1.3-0.2-1.5-9.6 2.5z" id="11206" name="11206">
  </path>
  <path d="M433.6 646.3l9.7 7.7 2.5 3.9 4.5 1.7 7 5.5-5.7 7.2-10.3 13-4 2.7-6.9 10.1-0.8 4-3.8-0.8-3-0.1-1-0.4 6.5-8.7-2.4-1.7-2.2 1.6-5-1.9-4.4-3.5-0.8-0.4 3.2-10.3-4-2-2.2 5.3-1.4 0.2 2.9-6.6 9.6-12.8 5.8-18.6 5.1 5 1.1-0.1z" id="11228" name="11228">
  </path>
  <path d="M589.3 346.5l-11.5-10.7-0.7-2.8 6.4-6.9-3.2-2.9 4.5-3.3 0.5-2.1 6.7-8.8 3.7-2.7 16.1 3.6 5.2 4.9 1.7 2.9-4.6 5.2-3.9 0.1-2.4 4.5 2.2-2.7 4.2-0.3 4.1-2.5 3.7 1.8 3.3 3.2-1.4 2.7 2.2 2-2.1 2.5 1 1.3-1.6 6.2-11.9 10.5-0.5 3.4-2.1-0.4-3.5-0.3-10.7-2.8-5.4-5.6z" id="11105" name="11105">
  </path>
  <path d="M512.7 419.5l8.6-5 5-0.5 2.2 0.4 8.7 3.6 7.8 3.8 2.9 5.2 1.1 3.6 3.4 3.5 4.9 2.1 8.5 2.4 2 5.5-12.4 4.4 0.9 2.7-2.3 0.9 1.9 5.7-3.2-0.8-4.9 1.8-0.3-2.4-15.1 1.9-0.9-7.1-1.6-3.8-5 6.1-2-1.7 2-2.2-1.4-3.1-3-2.5-0.3 1.7-6.2-1.4 0.9-8.8-1.8-7.3-0.4-8.7z" id="11222" name="11222">
  </path>
  <path d="M674.2 362.9l-2.8-4.5-5.2-6.3-6.8-5.2-3.7-1-4.2 0.1-4.2 1.3-10.3 6.7-5.4 2.2-1.6-4.2-1.1-8.7 0.6-1.1 7.5-1.3-1.1-8.8 0.1-3.3 5.7-1.4 4.3 0.1-1-2.7 1.5-2.4 5.1 3.1 6.2-9.5 3.3 0.2-0.4 5-5 5.8 12.5 8.6 15.2 10.4-2 3-2.8 0 3.2 2.4-5.1 4.5-5.4 0.6 3.7 6.1-0.8 0.3z" id="11371" name="11371">
  </path>
  <path d="M561.8 573.2l1.4-0.1 3.5-2 3.4-2 3.2-1.8 2.6-1.5 6.9-4-2.6-0.3 8.2-2.9 18.1-10.5 4.9 24.6-0.4 6.7 3 6.7-0.4 0.1-6.6 4.3-7.4 1.5-3 0.6-12.5 0-5.4-1.3-1.3 1.1-8.6-8.7-0.1-1.7-1.5-1.7-5.3-5.4-0.1-1.7z" id="11212" name="11212">
  </path>
  <path d="M575.9 462.1l-2.5 1.9 0.4 3.3 5.3 7.3-1.9 2.4 16.1 12.5-1.8 2.3 3.6 2.7-1.8 2.4 12 8.9-2.5 3.3 6 4.4-2.4 3.4-8.4-6.3-4.8-3.6 2.5-3.3-2.4-1.8-2.5 3.3-4.8-3.6-2.3 3.1-15.5-11.7-5.7-4.2-1.8-8.3-4-11.8 19.2-6.6z" id="11237" name="11237">
  </path>
  <path d="M567.3 191l5.4 1.4 3.3 0.6 3.3-3.6 6.2 1.8 2.3-1.2 6.5 1.9-1.2 3.8-1.9 7.3-2.6 4.8-6.8 9.3-2.3 4.6-3.5 8.5-9.7-4.9-3.5 1.8-3.3 0.4-0.7-10.6 0.8-5.2 5.5-14.1 2.2-6.6z" id="10452" name="10452">
  </path>
  <path d="M673.6 549.1l6.7 3.1 31.6 13 6.3 1.3 1 2.8 4.5 11.4 2.3 8.3 3.2 16.3-3.9-2.3-3.3-4.8-0.6-3.8 0.4 9.1-1 2.4-6.2-1-2-8.9-1.3 0.4 2.1 15-17.3 2.3-4.7-0.8-4.1-4.8 1.1-3.7 3.4-5.9-3.8 2-4.2-0.9-2.6 2.2-5.1-8.8-1.1-1.1-4.3-7.6 4.5-2.9 4.3-1-1.3-7 4.4-0.9-3.1-16.3-4.4 0.8-1.5-7.9z" id="11414" name="11414">
  </path>
  <path d="M451.4 430.2l-3.5 8.5-0.9 2.9-2.9-1.9-6.5-0.8-3.7 6.7-6.4-0.9 0.4-1.3 6.2 0.7 0.3-1.8-5.7-0.9 5.8-0.2 0.4-3.7-4.8-0.8 0.5-4.4 4.6 0.5-4.8-2.2 4.9 0.1 0.7-9.6-3.7-0.2 3.8-1.8 0.3-4.5-2-0.2 0.3-3.4 2.9 0.2 0.4-3.3-4.7-0.7 4.8 0.1 1.8 0.9 0.8-1.4 4.5 2.5-0.8 1.5 4.5 2.5 4.8 12.9-2.3 4z" id="10014" name="10014">
  </path>
  <path d="M262.5 660.9l-3.7-5.1-4.3 1 0.3 1.4-2.8-1.7-6.9 0.7-2.3-0.3 4.9-11-2.6-5.1 3.5-4.9 2.4-7.4-0.1-6.3 5.1 0 5-2.1 0.1-2 0.6-0.1 24.6-6.2-2.9 1.9 1.8 11.2 1.5 3.6 2.1-0.3 1 5.6-5.5 0.8 1.6 12.9 2.3 9.2-5.2 4.1-5.1 2.3-5.2-4.9-6.1-3.2-2.1 1.7-2 4.2z" id="10310" name="10310">
  </path>
  <path d="M747.1 99.5l2.4 0.6 32.9 11.1-1.2 1.1-3.8 12.4-3 5.7-1.6-0.4-3.1 6.6-2.6 1.9-0.6 3.3-4 0.1-5.3-5.1 3.3 5.3 2.9 1 0.2 3.5 2.7-0.8 1.2 2.9 6.9-13.7 4.4-0.4 1.9-4.3 0.9-5.6-1.7-1 2.3-4 6.1-2.9 0 3.8 4.5-0.4 1.8 5.3-3.8 7.7 3-1.4 0.7 3.3 2.5-3.5 0.7 4-4.2 4.9-8.3 1.2-3 11.3 3.7 5.8-1.8 0-2.9 3.4-0.5 5.6-6.9 4.8 0.3 4.8-3.1 8-0.4-0.1-2.1-0.5-3.2-7.4-2.8-6.6 1.1-7.2-0.4 0 0.7-5.6-1.7-0.1-1.6 0.5-1.5 1.3 0 3.3-0.2 0-5.2-8.2-4.5-2.8-2 2.1 0-4.6-2.7 1.4 0.7-3.2-7.8-6.3-3.3-8.5 5.4-18.9 0.2-7.3 0.7-0.3 6.3-2 0.4-4.9z m69.2 71.7l-1.2-10.1 3-1.3 2.6 4.2 5.8 6.3-1.6 1.1-2.8 2.1-1.1 6-1.1 5.9 3.5 6.9-0.1 0-3.8 0.5-3.7-5 1.5-6-2.4-3.8 1.4-6.8z m-33.1-4.4l4.6-5.1 1.2 2 1.2 9.1 0.1 0.1 0.6 0.6 4.6 4.3 0.3 0.7 3.8 8.6 0 1.4 0.1 4.4-0.2 3.9-0.1 0.8 1.7 7.3-2.2 2.7-2 1.7-2.5-2.5-4.5-8.5-4.4-9.5 2.4-10.2-4.4-9.3-0.3 0.1 0-2.6z" id="10464" name="10464">
  </path>
  <path d="M740.8 731.5l-0.4 4.7-1.3 0.6 3.9 4.9 3.2-0.5 0.3 2.4-30.1 10.6-4.1 2-47 21.5 0.9-4.7-2.2 0.5 4.6-2.4-3.3-7.4 5.3-3 0.5-4.1 15.7-10.9 4.1-1.8 8.4 1.2 9.3-0.6 1.1-1.8 4.5-0.4 11.6-4.1 0.8-2.6 7.6-2.9 2.9 1.5 3.4-2.5 0-2.8 0.3 2.6z" id="11694" name="11694">
  </path>
  <path d="M784.5 340.8l-1.7 1-17.8-2.4-0.1 1.5-4.2-1.9-9.8-1-14.2-2.7-6.6 2-2.5-1.6-1.8 1.4 3.7-8.2 0.9 0.4 0.9-2.1 0.7-2.1-1 0-2.4 0.1-0.2-6.3-5.9 0.1-0.7-9.9-1.5-0.2 1-4.1 3.6-1.1 2.1-2.8-2.1-7 6.5-1.7 8.1-7.5 6.2 5 5 3 2-0.5 10 2.5 3.3-1.1 3.6 0.4 6.8 2.8 0.3-0.9 3.1 1.4-0.6 6.7 2 5.7 1.1 0.5 0.6-3.6 3.1 4.8-6.7 4.1 1.3 0.4 1.2 9.2 4.8 15-2.1 0.7z" id="11357" name="11357">
  </path>
 </g>
 <g id="points">
  <circle class="40.51706195|-74.22752254999999" cx="90.9" cy="880.2" id="0">
  </circle>
  <circle class="40.684733550000004|-73.94186804999997" cx="545.5" cy="528.8" id="1">
  </circle>
  <circle class="40.89432305000001|-73.71334444999995" cx="909.1" cy="88.3" id="2">
  </circle>
 </g>
 <g id="label_points">
  <circle class="11219" cx="462" cy="638.3" id="11219">
  </circle>
  <circle class="10021" cx="518.6" cy="350.2" id="10021">
  </circle>
  <circle class="10044" cx="532.2" cy="367.4" id="10044">
  </circle>
  <circle class="11213" cx="553.9" cy="558" id="11213">
  </circle>
  <circle class="11424" cx="728.1" cy="467.2" id="11424">
  </circle>
  <circle class="10005" cx="437.6" cy="483" id="10005">
  </circle>
  <circle class="10311" cx="167.3" cy="695.5" id="10311">
  </circle>
  <circle class="10280" cx="426.3" cy="475.2" id="10280">
  </circle>
  <circle class="11365" cx="779.4" cy="414.6" id="11365">
  </circle>
  <circle class="11205" cx="502.6" cy="511.8" id="11205">
  </circle>
  <circle class="10170" cx="491.3" cy="386.2" id="10170">
  </circle>
  <circle class="11429" cx="869.2" cy="476.9" id="11429">
  </circle>
  <circle class="10003" cx="470.3" cy="429.8" id="10003">
  </circle>
  <circle class="11451" cx="777.6" cy="494.2" id="11451">
  </circle>
  <circle class="11358" cx="777.1" cy="370" id="11358">
  </circle>
  <circle class="11359" cx="808.2" cy="305" id="11359">
  </circle>
  <circle class="10453" cx="592.7" cy="177.1" id="10453">
  </circle>
  <circle class="10016" cx="486.4" cy="401.7" id="10016">
  </circle>
  <circle class="11378" cx="592.8" cy="451.2" id="11378">
  </circle>
  <circle class="10279" cx="439.2" cy="470.2" id="10279">
  </circle>
  <circle class="11418" cx="707.8" cy="498.5" id="11418">
  </circle>
  <circle class="10167" cx="492.4" cy="381.6" id="10167">
  </circle>
  <circle class="10153" cx="496.8" cy="363.1" id="10153">
  </circle>
  <circle class="11204" cx="475.4" cy="669.2" id="11204">
  </circle>
  <circle class="10308" cx="207.6" cy="802" id="10308">
  </circle>
  <circle class="10007" cx="442.7" cy="467.8" id="10007">
  </circle>
  <circle class="11421" cx="679.5" cy="510.3" id="11421">
  </circle>
  <circle class="10177" cx="491.3" cy="381.4" id="10177">
  </circle>
  <circle class="10111" cx="489.1" cy="373.1" id="10111">
  </circle>
  <circle class="10152" cx="497.4" cy="374.1" id="10152">
  </circle>
  <circle class="10017" cx="500.3" cy="389" id="10017">
  </circle>
  <circle class="10012" cx="456.1" cy="442.1" id="10012">
  </circle>
  <circle class="11233" cx="582.2" cy="541.2" id="11233">
  </circle>
  <circle class="11239" cx="639.8" cy="606.9" id="11239">
  </circle>
  <circle class="10006" cx="432.8" cy="476.2" id="10006">
  </circle>
  <circle class="10457" cx="609.1" cy="190.2" id="10457">
  </circle>
  <circle class="10459" cx="622.1" cy="231.1" id="10459">
  </circle>
  <circle class="10110" cx="481.2" cy="382.3" id="10110">
  </circle>
  <circle class="11379" cx="648" cy="460.8" id="11379">
  </circle>
  <circle class="10165" cx="486.8" cy="387.3" id="10165">
  </circle>
  <circle class="10271" cx="436.2" cy="479.4" id="10271">
  </circle>
  <circle class="10069" cx="467.7" cy="339.7" id="10069">
  </circle>
  <circle class="10162" cx="533.4" cy="351.6" id="10162">
  </circle>
  <circle class="10171" cx="494.6" cy="379.4" id="10171">
  </circle>
  <circle class="10169" cx="491" cy="382.5" id="10169">
  </circle>
  <circle class="10168" cx="489.4" cy="388.7" id="10168">
  </circle>
  <circle class="11221" cx="568.2" cy="513.9" id="11221">
  </circle>
  <circle class="10023" cx="480.5" cy="337" id="10023">
  </circle>
  <circle class="11102" cx="572.1" cy="345.9" id="11102">
  </circle>
  <circle class="11426" cx="897.9" cy="419.8" id="11426">
  </circle>
  <circle class="11109" cx="520.9" cy="400.7" id="11109">
  </circle>
  <circle class="11217" cx="486.2" cy="532.1" id="11217">
  </circle>
  <circle class="11225" cx="526" cy="573.9" id="11225">
  </circle>
  <circle class="11226" cx="521.4" cy="607.5" id="11226">
  </circle>
  <circle class="11351" cx="730.7" cy="327.1" id="11351">
  </circle>
  <circle class="11363" cx="855.7" cy="344.4" id="11363">
  </circle>
  <circle class="11373" cx="646.2" cy="415.5" id="11373">
  </circle>
  <circle class="11411" cx="872.7" cy="509.2" id="11411">
  </circle>
  <circle class="11416" cx="694.7" cy="528.4" id="11416">
  </circle>
  <circle class="11435" cx="755.4" cy="494.1" id="11435">
  </circle>
  <circle class="10112" cx="485.3" cy="372.5" id="10112">
  </circle>
  <circle class="10456" cx="602.3" cy="221.6" id="10456">
  </circle>
  <circle class="10020" cx="487.5" cy="374.6" id="10020">
  </circle>
  <circle class="10154" cx="496.7" cy="375.4" id="10154">
  </circle>
  <circle class="11104" cx="576.5" cy="404.6" id="11104">
  </circle>
  <circle class="11372" cx="638.2" cy="388.2" id="11372">
  </circle>
  <circle class="11001" cx="926.6" cy="446.4" id="11001">
  </circle>
  <circle class="10278" cx="447" cy="465" id="10278">
  </circle>
  <circle class="11230" cx="508.1" cy="660" id="11230">
  </circle>
  <circle class="10029" cx="541.8" cy="303.8" id="10029">
  </circle>
  <circle class="10075" cx="522.6" cy="342.6" id="10075">
  </circle>
  <circle class="10172" cx="493.8" cy="380.7" id="10172">
  </circle>
  <circle class="10474" cx="636.9" cy="263.6" id="10474">
  </circle>
  <circle class="11413" cx="846.5" cy="565.8" id="11413">
  </circle>
  <circle class="10199" cx="459.6" cy="388.6" id="10199">
  </circle>
  <circle class="10115" cx="510.6" cy="263.9" id="10115">
  </circle>
  <circle class="10303" cx="183.3" cy="640.4" id="10303">
  </circle>
  <circle class="10009" cx="487.2" cy="440.9" id="10009">
  </circle>
  <circle class="10032" cx="545" cy="204.4" id="10032">
  </circle>
  <circle class="10103" cx="488.5" cy="369.1" id="10103">
  </circle>
  <circle class="10025" cx="506.1" cy="289.6" id="10025">
  </circle>
  <circle class="10309" cx="98.5" cy="844" id="10309">
  </circle>
  <circle class="10470" cx="656.1" cy="85.8" id="10470">
  </circle>
  <circle class="10472" cx="658.6" cy="223.1" id="10472">
  </circle>
  <circle class="10468" cx="610.1" cy="148.8" id="10468">
  </circle>
  <circle class="11366" cx="791.6" cy="435.8" id="11366">
  </circle>
  <circle class="10033" cx="553.9" cy="182.7" id="10033">
  </circle>
  <circle class="10454" cx="586" cy="277.2" id="10454">
  </circle>
  <circle class="11354" cx="731.2" cy="353.8" id="11354">
  </circle>
  <circle class="10019" cx="473.5" cy="358.9" id="10019">
  </circle>
  <circle class="10467" cx="646.1" cy="126.5" id="10467">
  </circle>
  <circle class="11216" cx="533.5" cy="532.8" id="11216">
  </circle>
  <circle class="10036" cx="468.9" cy="372" id="10036">
  </circle>
  <circle class="10040" cx="564.3" cy="168.4" id="10040">
  </circle>
  <circle class="10173" cx="485.8" cy="383.1" id="10173">
  </circle>
  <circle class="10451" cx="572.2" cy="243.5" id="10451">
  </circle>
  <circle class="11369" cx="654.2" cy="361.7" id="11369">
  </circle>
  <circle class="11101" cx="546" cy="397.2" id="11101">
  </circle>
  <circle class="10469" cx="696" cy="140.1" id="10469">
  </circle>
  <circle class="10002" cx="474.6" cy="463.6" id="10002">
  </circle>
  <circle class="11436" cx="776.2" cy="547.9" id="11436">
  </circle>
  <circle class="10466" cx="697.5" cy="97.5" id="10466">
  </circle>
  <circle class="10010" cx="480.3" cy="415.5" id="10010">
  </circle>
  <circle class="11220" cx="432.1" cy="621.2" id="11220">
  </circle>
  <circle class="10039" cx="552.4" cy="235.1" id="10039">
  </circle>
  <circle class="11417" cx="700.9" cy="547" id="11417">
  </circle>
  <circle class="11203" cx="559.1" cy="603.4" id="11203">
  </circle>
  <circle class="11218" cx="492.5" cy="620.8" id="11218">
  </circle>
  <circle class="11207" cx="623.3" cy="559.1" id="11207">
  </circle>
  <circle class="10314" cx="197.2" cy="708.9" id="10314">
  </circle>
  <circle class="10458" cx="629" cy="157.9" id="10458">
  </circle>
  <circle class="10022" cx="505.3" cy="374.1" id="10022">
  </circle>
  <circle class="10024" cx="489.7" cy="314.9" id="10024">
  </circle>
  <circle class="11370" cx="627.6" cy="368.7" id="11370">
  </circle>
  <circle class="11430" cx="794.1" cy="606.3" id="11430">
  </circle>
  <circle class="10455" cx="598" cy="256.6" id="10455">
  </circle>
  <circle class="10119" cx="464.1" cy="391.1" id="10119">
  </circle>
  <circle class="10031" cx="532.3" cy="231.9" id="10031">
  </circle>
  <circle class="11415" cx="726.1" cy="480.6" id="11415">
  </circle>
  <circle class="11375" cx="698.2" cy="455.4" id="11375">
  </circle>
  <circle class="10037" cx="552.5" cy="259.9" id="10037">
  </circle>
  <circle class="10174" cx="492.7" cy="388.7" id="10174">
  </circle>
  <circle class="10011" cx="455" cy="408.7" id="10011">
  </circle>
  <circle class="11106" cx="561.4" cy="367.2" id="11106">
  </circle>
  <circle class="11223" cx="494.5" cy="711.4" id="11223">
  </circle>
  <circle class="10065" cx="510.5" cy="360.4" id="10065">
  </circle>
  <circle class="10463" cx="599" cy="116.7" id="10463">
  </circle>
  <circle class="10030" cx="543.8" cy="248.5" id="10030">
  </circle>
  <circle class="11367" cx="730" cy="434.7" id="11367">
  </circle>
  <circle class="11692" cx="776.8" cy="720.9" id="11692">
  </circle>
  <circle class="10038" cx="446.3" cy="478.9" id="10038">
  </circle>
  <circle class="10475" cx="725.9" cy="121.9" id="10475">
  </circle>
  <circle class="11229" cx="538.5" cy="700" id="11229">
  </circle>
  <circle class="11422" cx="874.7" cy="584.5" id="11422">
  </circle>
  <circle class="10035" cx="577.3" cy="300" id="10035">
  </circle>
  <circle class="10018" cx="462.5" cy="379.7" id="10018">
  </circle>
  <circle class="11208" cx="657.7" cy="560.2" id="11208">
  </circle>
  <circle class="10473" cx="675.3" cy="249.1" id="10473">
  </circle>
  <circle class="10027" cx="531.9" cy="263.3" id="10027">
  </circle>
  <circle class="11691" cx="837.3" cy="704.4" id="11691">
  </circle>
  <circle class="11425" cx="415.2" cy="690" id="11425">
  </circle>
  <circle class="11355" cx="737.5" cy="387.8" id="11355">
  </circle>
  <circle class="10471" cx="609.8" cy="74.3" id="10471">
  </circle>
  <circle class="11234" cx="589.7" cy="684" id="11234">
  </circle>
  <circle class="11361" cx="812.9" cy="364.4" id="11361">
  </circle>
  <circle class="11004" cx="912.3" cy="403.4" id="11004">
  </circle>
  <circle class="10013" cx="446.8" cy="454.9" id="10013">
  </circle>
  <circle class="11215" cx="476.5" cy="562.1" id="11215">
  </circle>
  <circle class="10461" cx="703" cy="183.9" id="10461">
  </circle>
  <circle class="10306" cx="248.9" cy="769.6" id="10306">
  </circle>
  <circle class="10301" cx="299.3" cy="646.1" id="10301">
  </circle>
  <circle class="10302" cx="234.1" cy="643.8" id="10302">
  </circle>
  <circle class="10304" cx="300.1" cy="709.7" id="10304">
  </circle>
  <circle class="10307" cx="66.6" cy="898.6" id="10307">
  </circle>
  <circle class="10312" cx="163.3" cy="821.2" id="10312">
  </circle>
  <circle class="11211" cx="516.5" cy="472.4" id="11211">
  </circle>
  <circle class="11231" cx="445.2" cy="542.1" id="11231">
  </circle>
  <circle class="11005" cx="909.3" cy="377.3" id="11005">
  </circle>
  <circle class="11103" cx="590.9" cy="363.4" id="11103">
  </circle>
  <circle class="11201" cx="469.7" cy="504.4" id="11201">
  </circle>
  <circle class="11209" cx="402.5" cy="655" id="11209">
  </circle>
  <circle class="10004" cx="423.4" cy="518.1" id="10004">
  </circle>
  <circle class="10026" cx="528.6" cy="281.7" id="10026">
  </circle>
  <circle class="10128" cx="533" cy="325.1" id="10128">
  </circle>
  <circle class="10282" cx="429.2" cy="461.5" id="10282">
  </circle>
  <circle class="11214" cx="458.4" cy="701.4" id="11214">
  </circle>
  <circle class="11224" cx="483.7" cy="753.6" id="11224">
  </circle>
  <circle class="11360" cx="800.3" cy="327.8" id="11360">
  </circle>
  <circle class="11362" cx="872.2" cy="378.4" id="11362">
  </circle>
  <circle class="11368" cx="688.1" cy="395" id="11368">
  </circle>
  <circle class="11374" cx="673.1" cy="438.3" id="11374">
  </circle>
  <circle class="11693" cx="739.3" cy="698.6" id="11693">
  </circle>
  <circle class="11697" cx="592.3" cy="791.1" id="11697">
  </circle>
  <circle class="11423" cx="825.9" cy="465.3" id="11423">
  </circle>
  <circle class="11427" cx="849.4" cy="437.7" id="11427">
  </circle>
  <circle class="11428" cx="863.4" cy="452" id="11428">
  </circle>
  <circle class="11433" cx="792.5" cy="500.5" id="11433">
  </circle>
  <circle class="11434" cx="809.5" cy="543.5" id="11434">
  </circle>
  <circle class="11236" cx="611.1" cy="624.6" id="11236">
  </circle>
  <circle class="11238" cx="510.7" cy="540.2" id="11238">
  </circle>
  <circle class="10460" cx="639.7" cy="193.4" id="10460">
  </circle>
  <circle class="11377" cx="606.7" cy="407.2" id="11377">
  </circle>
  <circle class="11385" cx="626.9" cy="504.7" id="11385">
  </circle>
  <circle class="11412" cx="838.2" cy="499" id="11412">
  </circle>
  <circle class="11419" cx="734.6" cy="520.5" id="11419">
  </circle>
  <circle class="10001" cx="458.9" cy="395.4" id="10001">
  </circle>
  <circle class="10465" cx="731.7" cy="238.4" id="10465">
  </circle>
  <circle class="11235" cx="534.4" cy="739.8" id="11235">
  </circle>
  <circle class="10462" cx="675.5" cy="191.5" id="10462">
  </circle>
  <circle class="10305" cx="335.6" cy="713.9" id="10305">
  </circle>
  <circle class="11210" cx="538.1" cy="645.1" id="11210">
  </circle>
  <circle class="10034" cx="581.4" cy="143.9" id="10034">
  </circle>
  <circle class="11364" cx="828.1" cy="405.8" id="11364">
  </circle>
  <circle class="11420" cx="742.8" cy="552.6" id="11420">
  </circle>
  <circle class="11356" cx="703.1" cy="319.3" id="11356">
  </circle>
  <circle class="11432" cx="780.2" cy="465.1" id="11432">
  </circle>
  <circle class="11232" cx="444.4" cy="588.2" id="11232">
  </circle>
  <circle class="10028" cx="526.6" cy="336.7" id="10028">
  </circle>
  <circle class="11206" cx="544.7" cy="493.1" id="11206">
  </circle>
  <circle class="11228" cx="432.6" cy="670.6" id="11228">
  </circle>
  <circle class="11105" cx="596.8" cy="333.3" id="11105">
  </circle>
  <circle class="11222" cx="536.6" cy="435.7" id="11222">
  </circle>
  <circle class="11371" cx="654.5" cy="336.8" id="11371">
  </circle>
  <circle class="11212" cx="591.4" cy="574.7" id="11212">
  </circle>
  <circle class="11237" cx="578.2" cy="489.1" id="11237">
  </circle>
  <circle class="10452" cx="573.3" cy="208" id="10452">
  </circle>
  <circle class="11414" cx="700.1" cy="581.5" id="11414">
  </circle>
  <circle class="10014" cx="444" cy="425" id="10014">
  </circle>
  <circle class="10310" cx="268.6" cy="636.2" id="10310">
  </circle>
  <circle class="10464" cx="752.7" cy="120.1" id="10464">
  </circle>
  <circle class="11694" cx="691.1" cy="754.9" id="11694">
  </circle>
  <circle class="11357" cx="753.7" cy="315.4" id="11357">
  </circle>
 </g>
</svg>